<?xml version="1.0" encoding="UTF-8" standalone="no"?>
<svg xmlns:rdf="http://www.w3.org/1999/02/22-rdf-syntax-ns#" xmlns="http://www.w3.org/2000/svg" height="1429pt" width="1172pt" version="1.1" xmlns:cc="http://creativecommons.org/ns#" xmlns:dc="http://purl.org/dc/elements/1.1/" viewBox="0 0 1172 1429">
<path d="m564.36 0c-30.65 2.95-60.85 15.163-81.89 38.238-26.41 33.425-54.62 73.652-51.59 118.27 1.54 20.53 22.32 32.56 27.31 51.75 1.22 21.64-13.25 39.4-21.75 58.21-8.33 10.23-17.92 24.11-33.4 19.41-51.79-6.16-113.5 15.97-132.18 68.72-10.55 21.39-12.06 44.86-11.95 68.16-3.29 16.15-19.05 25.48-26.62 39.56-19.69 25.79-20.63 59.47-28.18 89.48-17.32 1.48-35.36 12.01-40.27 29.56-12.73 40.23 7.41 90.49 45.91 108.83 40.37 14.33 86.81-16.8 84.43-60.76 12.55-4.78 28.04-5.79 38.44-15.58 8.53-4.26 12.68-16.22 6.44-24.05-10.35-16.57-19.4-33.82-27.88-51.4-2.82-13.34-17.73-30.54-3.71-41.2 20 36.57 30.13 85.02 71.6 103.74 22.48 6.26 48.59 14.57 70.59 2.5 13.98-8.26 20.05-25.09 20.03-40.66 4.27-42.05-10.8-82.15-24.09-121.17-4.71-9.56 5.43-10.59 11.93-9.3 13.38 57.3 49.86 108.57 94.59 146.81 22.88 18.76 52.52 36.04 83.04 28.62 28.53-9.18 42.17-38.61 51.62-64.81 0.2-10.04 6.87-2.64 9.97 0.37 50.27 46.16 118.6 75.38 187.64 66.85 33.2 8.71 69.09 27.79 103.26 12.46 31.45-13.73 32.15-53.3 29.45-82.22-30.56 2.77-53.59-19.29-73.42-39.09-13.1-14.36-27.62-27.47-42.17-40.31-20.74-16.19-45.34-27.29-70.79-33.69-22.08-7.12-45.56-6.92-68.47-8.31-2.43-25.63-16.05-50.68-38.37-64.13-29.53-18.58-65.77-20.9-99.7-21.16-4.09 0.57-4.96-4.02-6.74-6.65-14.45-24.56-37.24-45.84-65.68-52.26-10.74-2.93-1.81-16.5-3.06-24.01 5.99-13.85 8.29-37.4 23.68-43.09 7.82 14.62-15.1 35.67-6.04 51.99 9.3 3.86 18.54 7.92 27.25 13.02 4.87 4.1 9.73 8.27 15.05 11.84 10.73 8.17 16.93 20.16 22.02 32.31 11.14-0.61 24.29 4.21 34.16-2.03 10.93-15.33 7.69-35.89 11.38-53.36 9.3-10.85 29.41-2.68 36.08-17.15 0.85-5.4-3.47-9.83-6.13-14.06-13.3-25.56-11.66-53.66-8.61-81.51 1.85-7.63-10.54-2.63-14.07-4.88l-1.09-0.18c-15.43-3.34-34.57-9.55-43.82 7.47-1.22 1.3-2.36 2.68-3.45 4.09-10.16 9.16-21.55 20.7-36.87 16.83-10.31-3.46-16.02 7.92-25.48 8.15-8.87-7.12-3.04-20.93 7.62-21.67 0.52 0.03 1.56 0.05 2.07 0.07 15.07 0.89 36.15 5.09 43.75-12.48 0.27-0.38 0.83-1.1 1.1-1.46 5.94-4.48 8.74-11.38 13.24-16.97 26.62-8.23 56.39 16.39 80.92 6.11 6.3-18.65 0.39-40.483-8.66-57.808-8.55-20.75-23.11-39.687-42.5-51.324-24.22-17.463-54.67-21.663-83.56-24.688h-22.38zm473.84 114.74c-5 0.1-10.1 0.73-15.2 1.96-35.55 19.45-36 67.44-36.14 102.2-13.13 8.61-26.85 16.79-40.46 24.67-11.5-14.48-21.54-30.06-32.59-44.87-41.73-50.8-106.37-91.67-174.74-78.17 5.04 28.11-33.05 26.07-33.03 52.04-1.68 29.23 23.55 55.57 24.51 85.44-9.85 11.61-45.04 4.47-38.86 27.27-2.33 11.07-3.45 22.37-6.45 33.33 43.31 5.82 85.92 39.09 96.75 83.08 43.4 6.17 88.25 15.37 124.37 41.95 2.32 0.81 5.23 5.42 7.79 2.92 8.86-25.11 20.44-49.65 36.25-71.15 27.51-28.59 73.5-26.93 107.5-12.05 35.4 18.34 35 63.9 33.8 98.29-2.9 109.01-48.2 212.92-42 322.51 0.8 55.79 15.5 110.15 20.9 165.52 10.1 72.92 1.6 148.02-17.8 218.62 6.3 5.5 12.8 14.3 20.4 16.3 36.3-74.3 38.1-160.6 28.5-241.16-15.7-86.78-36.2-175.58-18.3-263.79 16.9-104.47 61.8-214.25 20.4-318.46 1.9-7.91 19.9-4.65 21 4.12 5 19.4 12.2 38.05 19.5 56.66 15.8 54.79 14.6 114.13 0.7 169.23-19.9 88.11-44.4 179.86-22.6 270.04 16.8 51.21 39.9 101.7 44.1 155.96 1.3 21.4-0.7 42.9 0.2 64.4-7.6 77.2-32.1 151.2-65.3 221 4.8 8 18.8 35.3 23.7 13.7 26.3-46.9 42.8-98.5 57.4-150.1 16.9-61.6 21.3-128.2 2.3-189.79-38.1-92.14-69.3-193.35-47.7-293.46 8.9-30.98 19.6-61.66 26.4-93.24 17.6-63.7 20.4-134.12-0.8-197.43 39 42.47 48.9 104.26 51.1 160.26 7.5 121.15-46 237.91-30.6 359.17 2.8 15.43 3.3 31.99 12 45.57 35.4 82.42 63 169.42 69.3 259.32-2.6 73.7-15.7 152.2-65.8 209.6-16.1 11.4-6.8 27.1 2.5 38.9 71.1-85.2 109.3-202.7 82.5-312.6-41.8-113.9-95.5-232.54-74.2-356.71 15.2-81.38 39.5-163.42 37.7-245.94 13 36.37 15.1 75.64 14.1 113.94 2.5 68.31-25.7 132.47-30.9 199.96-3.6 48.37 0 98.49 18 144.05 25.3 41.1 51 82.3 71.3 126.3 16.4 46.1 17.1 96.2 14 144.6-13.1 86.9-53.6 167.9-105.8 237.8 5.1 8.8 7.8 20.4 13.2 28.3 46.3-66.9 92.1-137.7 112.4-217.3 12.6-36 12.4-77.5 5.2-115.2-4.9-41-26.7-76.8-43.5-113.7-30.5-62.8-62.7-128.35-62.1-199.86 4.6-49.75 19.9-97.6 29.1-146.53 16.5-98.67 14.8-203.89-24.8-297.15-22-51.51-58.5-94.6-98.4-133.02-6.4-51.6-6.5-107.88-36.9-152.92-16.8-29.9-48.8-55.11-83.9-54.38zm-232.5 50.69c23.35 3.05 39.17 25.82 54.4 41.93 16.66 15.43-9.75 28.66-21.2 36.39-18.07-18.29-36.23-37.68-57.68-52.55 6.55-9.63 14.34-19.87 24.48-25.77zm-133.84 2.15c11.11 0.58 16.37 18.29 3.93 22.02-14.03 5.7-24.56-18.32-7.55-21.61 1.26-0.34 2.47-0.47 3.62-0.41zm391.64 5.26c19.6-0.61 31.1 18.11 38.5 33.88 14.2 34.04 28.2 69.54 29.2 106.77-21.6-8.69-50.3-19.52-67.4 4.02-22.4-27.61-31.1-65.52-31.1-100.71-2.9-18.76 7.6-42.97 28.9-43.84 0.6-0.06 1.3-0.1 1.9-0.12zm-70.67 194.71c-1.81-0.02-3.69 0.19-5.65 0.66-13.2 3.08-23.17 14.28-29.73 25.49-7.45 8.11-12.45 18.7-15.88 29.08-10.22 15.26-21.56 44.15-3.93 58.25 15.47 17.21 35.4 31.47 56.4 41.38 6.76 0.01 20.96 9.48 23.36-1.34 11.2-37.35 12-77.49 4.9-115.63-1.6-15.48-12-37.64-29.47-37.89zm-483.44 203.36c-2.32 8.59-3.33 17.5-4.2 26.35 27.71 81.59 85.61 147.58 126.51 222.44 2.22 4.32-2.32 8.14-3.96 11.8-24.75 39.15-38.82 87.02-29.98 133.25 7 40.25 32.43 80.35 72.92 93.25 66.1 22 158.27-23.1 156.71-99.35 28.63 15.46 47.27 43.45 66.41 68.85 40.53 62.1 82.65 126.4 98.6 199.9 4.93 19.1 2.25 56.7-24.9 55.4 17.04-23.8 9.29-55.1 2.06-81-25.56-73-67.74-139.7-119.18-197.2-2.53-2.1-4.78-6.44-8.72-5.65-19.94 47.85-72.93 76.95-123.45 78.05 18.14 39 46.06 73.2 75.39 104.4 41.89 50.8 106.03 82.2 135.3 143.3 7.63 20.5 17.45 40.6 31.1 57.7 3.16 5.7 6.48 11.4 10.28 16.8 9.42-18.4 19.75-40.1 41.02-47 24-5.6 45.9 9.5 63.1 24.4 3.1 1.5 8 8.9-1.4 4.5-27.6-2-62.5-14.2-84.44 8.9-9.96 9.5-9.08 24.5-8.37 37.1 4.39 29.6 18.35 57.5 37.41 80.4 4.6 7.9 10.5 15.1 17.2 21.5 10.6 12.6 21.9 24.9 35.2 34.7 3.6 4.3 7.2 9 12.6 11.2 14.6 14.7 31.4 27.2 48.5 38.9 9.4 8 19.5 15.2 29.9 21.8 9.3 6.1 4.1-14 10.1-18.6 14.4 36.8 31.1 72.6 45 109.5 2.4 24.1 4.8 63.3 40.3 54.7 16.9 0.7 33.7 2.2 50.6 1 15.3 0.4 30.6 2.1 45.9 1.6 6.3-0.1 12.7 0.2 18.9-0.5 20.4 4.5 41.7-0.8 62.3 2.9h6.7c3-0.8 6.3-1.3 9.4-2 5.6-1.1 10.2-4.8 14.8-8v-9c-28.4-25.2-68.1-30.3-100-49.7-34.1-20.6-67.8-43.1-95.2-72.3-22.8-23.2-31.7-55.2-47-83.1-19.6-43.3-41.3-85.9-65.3-127-13.3-24.8-24.9-51.3-43.7-72.5-8.9-18.8-29.5-33.6-25.4-56.7 0-39.9-10.6-82.1-39.3-111.2-13.9-9.8-29.1-18.4-41.1-30.6-11.51-62.3-41.55-119.8-76.47-171.98-14.75-21.32-30.3-42.86-50.48-59.43-16.62-21.8-42.11-32.02-66.51-42.12-13.32-4.08-19.39-25.76-3.26-30.54 11.15-1.93 9.92-18.52 2.48-23.96-18.84-37.8-42.97-73.97-52.02-115.78-0.15-15-4.46-40.77 13.45-47.47 17.77 3.17 34.72 11.93 53.27 9.68 27.42-1.6 52.79-23.86 52.55-52.39-62.46 0.64-123.55-20.2-177.42-49.49-1.09 28.13-23.83 54.37-53.29 55.99-55.52 9.22-105.86-26.4-140.91-65.7zm-140.39 38.28c-1.91 0.19 0.27 6.66 1.16 9.2 2.33 18.67 8.14 38.67 18.74 53.8 6.14 13.81 18.53 24.41 27.53 36.45 4.35 12.18 16.09 20.31 26.23 27.46 10.03 11.79 23.09 21.49 34.95 31.26 7.32 11.93 26.88 22.73 18.53 38.74-15.48 29.94-35.43 59.39-39.39 93.52l-0.54 0.81c-5.96 22.78-6.4 47.29-2.2 70.39 1.01 10.07 1.93 21.46 7.48 30.28 5.75 16.7 16.46 32.7 32.06 41.6 37.48 23.8 96.8 32.9 131.41-0.1-13.47-6.4-24.35-16.6-35.53-25.8-15.38-22.11-24.26-48.09-26.08-74.91 0.75-6.65 0.55-13.35 0.18-19.98 2.78-27.42 11.15-54.2 17.43-81.09l0.22-0.98c7.65-15.6 9.46-36.16 2.1-53.1-13.84-34.44-37.98-63.48-56.03-95.49-12.16-24.6-26.05-50.75-39.79-73.68-36.35 17.99-81.28 17.93-114.97-6.1-1.75-1.7-2.85-2.34-3.49-2.28zm68.61 374.94c-7.79 0.08-12.16 9.45-16.33 14.67-29.09 45.9-49.87 97-62.69 149.7-4.43 13.9-7.77 28.3-9.99 42.8-3.6 12.6-5.84 25.7-7.42 38.8l-0.17 1.1c-2.87 14.5-4.06 29.2-7.54 43.6-0.32 1.3-0.63 2.5-0.92 3.8-17.62 29.8-49.65 48.6-68.86 77.6-14.31 13.7-26.31 29.7-38.38 45.4-36.35 66.4-63.6 137.5-86.67 209.5-3.77 13.1-13.8 22.9-22.58 32.8-19.948 16-41.81 29.1-64.96 39.9-17.325 8.5-40.575 11.5-51.1 28.8v4.2c0.75 1.5 1.5504 3.1 2.3379 4.7 3.425 8 8.5631 16 16.275 20.4 24.863 1.1 49.887 0.7 74.787 0.3 16.94-2 39.3 6.5 52.63-7.6 11.56-17.5 24.48-34 35.27-52 17.41-22.8 32.54-47.4 46.16-72.6 4.93-8.1 3.08-17.6 1.6-26.3-5.01-35.6-11.35-71.7-5.38-107.5 8.7-68.5 65.21-123.7 131.01-139.2 9.27-3.1 16.62 3.9 24.13 7.9 8.14 10 15.71 21.4 16.46 34.7 18.16-3.4 33.62-17.8 45.03-31.8 4.97-5.3 9.01-11.3 12.23-17.8 5.35-9.8 14.37-19.7 14.5-31.1-23.94 1.2-49.04-2.4-68.35-17.6-3.28-3.8-6.13-8-9.81-11.4-13.14-22.3-13.82-48.7-12.57-73.8 5.41-52.3 28.02-100.5 47.28-148.6 2.41-3.6 13.87-11.6 10.63-0.9-6.56 19.5-19.63 36.6-23.15 57.2-3.65 16.3-8.02 32.5-9.93 49.1-4.22 17.4-6.74 35.9-5.18 53.7l0.25 2.2c0.65 14.6 2.77 31 12.48 42.5 27.05 40.4 89 22.9 117.65-7.5 29.16-22.7 48.65-55.4 63.75-88.7 15.42-27.5 30.12-55.9 42.31-85-10.66 1.8-20.78 6-31.33 8.3-14.3 2.6-28.73 4.3-43.22 5.3-26.2-0.8-52.64-7.1-74.45-22.1-23.82-19.3-38.79-47.7-45.02-77.45-0.26-0.02-0.52-0.02-0.77-0.02zm787.39 122.17c-0.3 14.6 0.3 29.2-0.4 43.8-2.6 74.8-14.5 154.2-62 214.9-12.9 11.4-4.5 26.1 5 36.4 55.8-67.4 75.7-160.5 63.3-246-1.2-16-2.7-35-5.9-49.1zm-870.92 248.3c-13.23-0.2-28.54 4.8-37.84 9.3l-0.94-0.1c-24.22 8.7-43.88 29.6-53.76 52.9-15.55 22.1-24.49 52.1-27.53 79.6-4.16 27.7-9.47 60.2 4.33 85.7 32.29 4 61.2-20.3 84.05-39.8 25.65-18.4 46.06-48.6 53.66-79.8 9.73-28.6 9.12-62 2.59-91-2.85-12.4-12.89-16.7-24.56-16.8zm598.35 100.3c-8.94 19.5-14.93 41.4-18.59 62.8-3.09 7.1-3.2 15.5-3.31 23.2-7.07 48.6-2.78 102 5.63 148.7l0.27 1.1c4.86 29.6 11.93 59.5 23.08 87.2 8.43-0.2 17.71-6 25.65-9.7-1.55-7.6-2.56-16.6-6.48-23-5.59-25-10.49-50.5-15.24-75.6l0.31-1c-4.11-33.8-5.69-67.6-4.04-101.5 0.37-14.2 1.33-28.3 3.8-42.2 16.8-23.5-2.65-47.2-11.08-70zm61.37 90.1c-4 16.1-9.5 32.4-7.6 49.3-0.4 4.6-0.1 9.2 0.6 13.9-7.4 54.4 5.2 111.2 29.6 160.4 3.1 8.6 13-2.8 15.8-5.1 6.6-0.9 17.3-4.3 9.1-11.1-12.1-28.2-22.6-59.6-27.7-88.2-2.7-30.8-1.2-62.2 5.8-92.5 4-15.1-17.1-18.4-25.6-26.7zm66.4 51.3c-7.8 23.3-8.1 48.9-4.9 72.9-0.8 6.4 0.5 13.1 2.5 19.2 2.6 13.7 6.4 30.2 13.6 41.4 0.3 0.6 0.8 2 1 2.6 3.5 12.8 11.7 24.3 19.1 34.9 4.4 12.1 15.8-8 22-11.3-7.2-15-13.9-31-20.9-46.2-8.9-29.1-15.5-59.5-10.3-90l0.3-1.1c5.8-13.1-11.7-20.1-22.4-22.4zm73.6 58.9h-1c-11.4 36.3 0.3 78.3 27.4 104.7 5.5-2.8 12.4-8.4 13.1-14.4-16.8-19.8-28.1-44.5-26.6-70.9 2.7-9.8-3.2-19.2-12.9-19.4z" transform="scale(.8)"/>
</svg>
