<?xml version="1.0" encoding="UTF-8" standalone="no"?>
<svg xmlns:rdf="http://www.w3.org/1999/02/22-rdf-syntax-ns#" xmlns="http://www.w3.org/2000/svg" height="1608pt" width="1278pt" version="1.1" xmlns:cc="http://creativecommons.org/ns#" xmlns:dc="http://purl.org/dc/elements/1.1/" viewBox="0 0 1278 1608">
<path d="m854.36 0c-16.37 1.85-19.32 25.876-5.79 33.488 27.04 3.038 52.44 13.049 77.64 22.737-10.96 17.337-32.11 35.813-38.74 58.775-9.76 18.38-14.2 39.36-16.12 59.96l-0.11 1.07c-5.26 38.08-3.1 78.9 13.58 114.06 29 82.37 138.88 125.17 213.78 78.55 16.8-8.52 27.8-25.22 31.8-43.35 6.5-20.98 10.3-42.8 9.4-64.8 0.9-50.01-19-100.28-49.6-139.35-31.8-42.428-76.7-75.315-126.34-93.802-31.85-13.113-65.55-21.463-99.43-27.338h-10.07zm186.14 9.0254c-13.1 0.775-26.7 1.7376-39.3 2.9996 23.3 10.138 45.6 22.413 67.2 35.787 28.7 21.926 59.2 47.775 68.3 84.228 8.4 5.11 16.5-3.83 22.6-8.98 27-29.635 7.6-76.673-20.1-98.585-29.8-15.963-65.9-14.937-98.7-15.45zm358.5 7.0526c-16.7 0.264-33.3 4.479-47.6 12.66-8.4 3.6-5.4 14.8-3.3 21.512 6.8 19.175 14.4 39.087 30.2 52.7 21.7 30.21 37.1 64.37 49.3 99.37 7.8 30.42 15.9 61.55 14.5 93.25 2.4 0.9 5.3-2.26 6.7-4.26 0.3-0.26 0.7-0.81 1-1.07 50.5-41.66 58.6-116.03 49.8-176.96-1.8-19.442-9.6-38.805-19.7-55.655-16.7-28.161-49-42.051-80.9-41.547zm147.4 14.717c-3.3-0.189-6.5 1.43-6.7 5.318-7.4 34.088 8.8 68.107 2.6 102.39-4.8 61.89-35.7 116.6-58.4 172.95 0 7.29-11.2 26.84 0.1 28.83 27.2-16.29 57.6-30.82 77.5-56.31 17.3-30.35 30.7-63.79 36-98.47v-23.69c-2.8-45.46-16.7-90.934-44.4-127.51-1.4-2.116-4.1-3.358-6.7-3.505zm-338.3 3.072c-3.3 0.022-6.6 0.153-9.9 0.395-4.2 0.062-6.8 2.362-3.8 7.562 5.6 35.375 10.8 78.336-15.6 106.96-6 7.51-16.3 10.51-22.1 17.76 6.5 52.27 24 106.01 9.6 158.56-7.1 22.55-14.9 47.49-34.9 61.62 7.1 39.69 37.6 70.49 65.4 97.73 20 18.74 42.1 37.01 68.8 44.98 61.5 11.95 127 7.26 185.3 33.46 23.3 8.72 35.3 35.55 60.7 40.4 28.3-2.1 40.1-40.7 35.9-62.97-28.3-3.2-65.2-15.71-67.3-49.38 1.2-24.12 1.6-48.36 0.7-72.54-27.5-34.91-51.3-74.35-63.1-117.54-7.7-74-25.9-151.97-78.6-207.57-33.5-35.733-81.6-59.753-131.1-59.423zm53.9 249.08c36.2 0.44 64.8 32.3 81.8 62.01-27.2 13.93-69.2 20.99-90-6.34-11.3-8.88-26.9-9.61-37.7-19.42 1.6-16.6 15.7-32.02 32.2-34.92 4.7-0.96 9.3-1.38 13.7-1.33zm-260.3 125.25c-5.28-0.09-9.58 2.43-11.69 10.64-16.46 32.76-22.11 74.46-8.44 108.62 8.15 29.02 30.43 53.55 54.83 69.78 0.4 0.29 1 0.87 1.4 1.16 21.7 20.94 42.4 43.64 63.5 65.34 92.2 103.45 168.3 221.91 218.5 351.46 5.9 13.2 9.6 27.5 17.6 39.7 17.5 15.4 46.9 9.7 60.1-8.7 12.1-11.9 24-25.6 31.3-41.1 39.2-64.65 36.6-146.4 20-217.57-3.8-23.52-11.7-47-20.2-68.73-13.3-43.31-34.6-84.09-55.8-124.08-6.7-9-11.9-25.71-26.1-22.81-66.3 7.6-130.9-24.37-174.2-73.1 3.9 18.59 3.3 37.73 2.8 56.6-3.9 14.63-6.5 29.7-12.9 43.58l-1 0.02c-4.4-18.74-2.6-38.62-9.1-56.96 0.1-0.45 0.1-1.37 0.1-1.84-7.8-32.78-18.7-66.53-36.5-94.93-2.6-12.4-11.6-22.23-16.3-33.79-21.7 6.82-44.7 7.22-67.4 5.06-0.5-0.09-1.5-0.25-2-0.34-8.4-0.47-19.8-7.87-28.5-8.01zm526.5 24.52c-3.4-0.02-6.6 0.07-9.8 0.24-15.2 3.43-15.6 22.94-14.5 35.32 1.3 13.83 2.4 31.29 14 40.19 11.4 17.08 48.1 21.88 52.5-4.88 9.7-16.15 20.2-46.78-1.3-60.16-11.6-8.22-26.6-10.6-40.9-10.71zm-576.94 132.64c-1.73-0.02-3.49 0.07-5.29 0.29-6.5 0.15-14.03 7.55-9.37 13.75 13.6 16.34 26.46 34.92 39.75 50.3 8 12.95 16.79 26.74 27.65 37.62 8.1 15.34 20.4 28.84 31 42.69 5.7 10.08 11.8 20.51 20 28.71 20.5 33.13 41.6 66.64 61.3 100.06 14 28 27.9 56.48 41.4 84.72 10.7 27.56 21.8 56.95 31.3 83.8 0.7 6.8 2 13.9 5 20 8.6 39.1 15.2 79 12.5 119.2-7.5 48.8-16.8 98.2-20.2 147.6-1.4 3-3.1 8.1 0.6 9.9 20 14.9 47.7 8.6 68.2-1.6l0.9-0.2c29.1-11.4 56-30.2 78.7-51.3 28.9-23.4 56.5-52.1 72.6-86.1 20.4-38.9 26.5-86.2 38.9-128.9 2.1-18.7-8 4.5-11.4 8.9-2 1.9-4.4 3.6-4.9 6.4-21.6 24.8-53.5 35.7-80.6 53.1-4.9 10-7.2 21.1-10.9 31.6-18.3 43.2-34.7 98.5-83.5 115.1 43-58.4 78.6-135 49.2-207.7-8.1-25.1-17.8-50.39-30.6-73.37-24.9-53.34-55.1-105.32-88.6-153.62-8.5-15.89-19.3-30.76-29.8-45.27-39.8-60.1-89.2-114.03-141.7-163.19-17.13-16.57-36.18-42.23-62.14-42.49zm-36.88 29.63c-5.83-0.15-11.91 0.87-17.43 1.83-50.31 9.57-97.87 30.77-141.24 57.65-52.72 31.98-102.36 73.97-164.01 87.23-24.38 7.1-49.95 8.45-75.08 10.92-21.83-0.32-43.67 0.04-65.51-0.17-29.17-0.6-58.01-6.14-87.21-6.1-66.07 1.87-132.49 28.34-177.74 77.31-53.45 57.7-71.84 143.45-52.56 219.04 24.67 95.7 75.82 181.7 127.5 265 19.09 34.6 24.59 74.9 25.51 113.9-12.27 33.1-31.7 63.7-38.36 98.8-0.09 20.2 16.65 34.5 24.34 52 29.35 54.8 60.48 109.5 77.98 169.5 11.14 26.3 5.3 61 28.57 81.4 7.61 7.3 19.1 1.8 27.97 4.1 18.27 21.3 27.36 48.8 39.05 73.9 6.9 23 30.93 39.9 54.96 36.3 11.37-3.6 15.16-15.5 20.22-25 18.14 15.2 43.21 18.8 66.06 16.3 7.95-1.8 17.31-7.3 13.39-16.9-7.14-21.6-29.75-30.4-47.14-41.9-75.96-61.4-135.73-142.8-171.2-233.8-19.15-48.7-22.27-104.4-6.9-154.5 54.9-80.3 97.17-172.2 104.76-270.3 4.51-44.4-5.55-88.7-20.17-130.4-11.55-32-24.15-64.6-47.09-90.39-4.69-5.58-16.42-22.51 0.5-19.4 24.86 8.7 37.04 35.29 50.38 55.99 34.75 72.4 53.31 154.5 45.08 234.8 91.46 44.6 183.47 90 281.48 118.7 40.8 10.6 86.77 21.2 127.45 5.3 0.85-11.6-2.9-25-4.84-37.2-44.3 1-85.47-19.3-121.82-42.7-77.9-50.3-137.78-122.2-203.47-186.5-33.72-36.6-70.25-70.8-102.59-108.5-5.36-11.66 11.46-11.97 18.08-7 38.89 24.7 68.3 61 100.51 93.2 75.9 77.6 147.48 163.6 245.26 214.8 18.09 11 38.81 18.6 60.37 15.1-0.83-65.7-7.23-131.3-9.19-197 1.86-49.7 4.76-102.3 29.59-146.71 14.41-26.21 44.89-43.59 74.96-37.43 7.2 1.44 11.2 13.54 2.7 16.33-46.27 21.09-68.75 72.91-74.14 120.81-12.08 74.5 9.06 148.2 12.08 222.5 6.11 81 17.15 162.3 10.8 243.7 19.85 38.4 27.47 81.4 32.55 124-0.65 32.8 1.2 65.6-0.48 98.4-2.66 24.6-8.02 50.5 0.07 74.7 2.27 14.8 17.92 16.3 29.82 15.1 14 42.8 13.2 94.2 41.6 132.4 19.7 7 40.5 10.9 60.9 15.9h5.8c0.8-11 0.9-22.1 3.2-32.8 17.3 4.4 33.9 46.3 55.4 23.5 7.6-36.9-25.7-62.7-48.4-86.2-31-36.1-54.7-80.6-59.1-128.6 0-99.7-0.3-199.5 0.1-299.3 4.5-74.2 50-135.3 78.9-201.3 24.6-41.8 20.8-92.3 20.7-138.8-1.3-69.6-20.7-137.4-49.9-200.16-28.8-67.1-63.1-131.67-97.9-195.83-29.4-50.31-56.73-102.8-95.78-146.47-4.82-6.7-11.86-8.85-19.34-9.05zm-839.29 1.33c-4.338-0.06-8.912 1.87-11.373 6.19-33.438 37.3-58.138 84.18-63.713 134.45v16.32c3.3125 31.62 12.724 63.18 30.887 89.54 14.962 23.69 36.801 47.02 65.451 52.4 5.742 0.94 11.462 2.24 17.262 2.83 6.06-26.54 20.5-49.76 34.18-72.9 5.21-6.94 10.31-13.92 14.98-21.22 2.45-3.28 4.97-6.57 6.92-10.15-27.44-8.08-53.87-21.2-73.543-42.42-33.45-39.25-28.212-94.62-12.237-140.15 4.985-9.22-1.585-14.81-8.814-14.89zm429.86 697.18c-6.48 79.8 7.27 162.4-7.54 241.4-2.99 7.4-5.07 15.9-3.98 23.9 18.85 32.8 34.19 67.7 54.17 99.8 11.11 25.5 23.9 53.5 31.33 78.1 4.72 18.9-1.28 39.8 8.63 57.5 4.46 13 19.79 20.3 32.98 19.5 1.93 0.5 4.27-0.5 6.64-1.8 26.18-4.4 32.15 31.4 33.67 52.1-0.15 1.4-0.06 2.8 0.27 4.3-2.91 36.3 36.17 56.7 66.92 63.6 14.42 4 33.16 6.6 39.39-10.8 12.12-21.3 27.31 8.4 39.13 16.1 9.85 13.8 24.7-2.8 20.82-14.6 0.7-9.1-0.57-19.6-8.42-25.4-16.22-12.8-30.12-28.4-46.4-41-39.11-42.7-85.65-79.9-117.42-128.9-2.7-7.2-7.9-13.1-11.3-19.9-21.51-62.2-53.65-121.7-59.12-188.4-3.4-25.8 1.34-51.7 3.58-77.3 6.99-28.5 13.94-57.3 25.08-84.6 1.08-4 4.24-11.2-0.99-13.1-35.74-17-71.83-33.3-107.44-50.5zm766.05 30.1c-19.7 6.7-39.1 14.7-58.6 21.5-17.5 3.9-34.9 9.4-53.1 10-8.3 32.9-17.4 65.8-24.2 99.1-9.7 27.8-13.7 57.8-25.1 84.9-0.6 27.2 3.5 54.3 6.2 81.3 1.6 26.9 4.7 53.8 7.4 80.5 2.7 22.9 0.9 46 1.4 69 0.9 20.6-12.3 42-1.8 61.8 6.1 13.8 23.1 0.3 32 9.5 15.7 22 10.9 53.1 26.4 74.9l0.1 1c12.8 29.9 28.6 62.5 56.8 80.5 4.8 5.1 12.2 6.4 18.8 7.6 19.3 6.3 24.4-31.3 44.1-20.3 6.3 11.8 30.2 21.3 36.4 4 7.1-30.5-21.1-56.3-43-72.4-62.8-44.9-90-121.6-97.6-195.6-2.3-25.8-2.6-51.7-3.6-77.5 1.7-41.4 6.4-83.6 15.3-124.4 10.6-38.6 25.1-76.5 35.9-114.8 10.3-26.2 17.8-53.7 26.2-80.6z" transform="scale(.8)"/>
</svg>
