<?xml version="1.0" encoding="UTF-8" standalone="no"?>
<svg xmlns:rdf="http://www.w3.org/1999/02/22-rdf-syntax-ns#" xmlns="http://www.w3.org/2000/svg" height="957pt" width="1675pt" version="1.1" xmlns:cc="http://creativecommons.org/ns#" xmlns:dc="http://purl.org/dc/elements/1.1/" viewBox="0 0 1675 957">
<path d="m1248.8 0c-8.2 3.2-32-3.35-29.7 11.875 27.3 11.963 57.7 13.55 85.6 23.375 28.4 14.212 49 39.525 73 59.625 10.3 12.505 21.2 24.535 33.5 35.085 44.5 44.07 90.5 92.34 152.6 109.9 16.7 4.35 36.8 7.63 51.5-3.37 21.4-11.96 31.8-38.39 28.5-62.05 0-20.09-16-36.11-33.6-43.35-69.8-32.44-139.5-65.278-211.4-92.528-15.4-5.45-30.2-12.725-46.2-16.113-30.7-12.237-64-16.386-96-22.449h-7.8zm-405.01 1.6387c-48.26-0.3685-94.53 17.963-138.69 35.974-50.25 18.125-100.95 36.85-148.91 60-1.31 0.263-2.6 0.561-3.87 0.899-38.4 20.098-95.84 31.838-103.61 81.738-0.27 1.79-0.3 3.67 0.39 5.39 0.09 15.58 6.12 33.14 18.66 42.82 0.31 0.32 0.97 0.92 1.29 1.23 4.08 8.83 15.01 12.47 23.86 15.09 41.5 3 80.64-18.74 111.99-43.64 14.13-9.03 27.78-19.88 38.65-32.63 10.5-5.74 18.29-16.14 26.25-24.97 9.69-7.89 19.36-16.91 26.35-27.36 27.35-28.404 56.52-56.105 89.86-77.28 14.45-6.137 28.47-14.037 44.27-16.162 15.56-2.375 33.81-2.25 44.83-15.4-3.46-4.8001-11.25-3.3255-16.29-4.963-5.03-0.4594-10.04-0.6982-15.03-0.7363zm296.91 31.261c-14.2 0.392-9.1 19.155-0.9 26.151 41.9 45.949 108.2 45.839 164 62.209 26.4 3.1 47.8 19.97 72.8 27.27 9.9 2.93 11.5-9.53 5.6-14.47-64.8-63.36-163.2-59.011-238.4-100.99-1.1-0.142-2.1-0.196-3.1-0.17zm-188.05 0.905c-7.38 0.142-17.35 4.965-21.43 8.769-4.02 0.975-8.2 2.026-11.4 4.826-19.21 8.338-41.21 12.7-59.67 20.262-13.65 2.175-27.11 6.576-39.99 11.238-18.09 4.413-38.21 9.274-53.69 18.862-18.72 7.638-38.69 17.148-51.19 33.668-6.39 2.11-11.51 12.58-4.81 17.18 5.83-0.12 14.48-1.82 17.97-6.4 21.76-7.36 44.65-20.71 66.02-24.99 15.73-1.81 34.16-5.33 47.58-9.84 21.1-3.8 43.82-7.667 62.9-17.542 13.7-5.15 28.06-12.2 37.61-23.588 8.65-3.875 13.66-14.112 18.6-21.6 1.4-8.236-2.77-10.956-8.5-10.845zm-543.96 150.44c-6.28 0.27-12.91 4.45-17.25 8.47-3.06 0.58-6.28 1.89-7.62 4.94-14.96 8.19-28.02 23.52-32.31 40.22-11.84 21.17-10.51 50.12-5.07 74.15 1.26 9.97 4.2 20.78 9.87 29.16 2.95 9.25 8.4 17.39 13.89 25.3 4.86-9.56 11.36-18.61 15.54-28.21 11.92-9.83 20.46-24.49 31.55-35.71 14.41-11.03 27.87-24.47 46.1-28.97-6.09-7.68-16.18-14.7-23.34-22.42-6.12-8.07-11.74-17.92-19.04-24.62-4.71-13.87-12.65-27.1-12.32-42.31zm1276.6 0.81c-0.6-0.01-1.1 0-1.6 0.04 0.1 1.42 0.2 2.86 0.4 4.29-3.3 14.81-9.1 28.74-16.6 41.85-10.6 12.74-21.1 26-32.6 37.9-14.3 4.08 5.5 8.94 11.8 10.41 33.9 20.24 57.2 53.26 77.2 86.51 2.5-0.92 2.4-4.91 3.6-7.16 10.2-15.02 16.9-33.83 19.5-51.86 6.8-25.95 3.6-56.82-10.9-79.4-6.1-11.38-14.4-23.09-26.4-28.67-5.3-6.86-16.5-13.64-24.4-13.91zm-479.7 35.64c-1.3-0.07-2.7 0.34-4.4 1.37-22.9 21.83-42.1 47.47-65 69.28-22.4-23-57.1-25.31-87.5-25.14-31.8-0.5-68.49 1.07-92.51 25.09-21.21-21.67-41.35-44.62-62.13-66.8-3.45-5.52-15.68-4.27-10.78 4.4 17.42 28.09 46.18 48.1 60.66 78.28 2.77 5.07-5.9 2.51-8.22 5.48-56.33 13.04-109.03 43.85-150.78 83.56-10.4 7.05-19.32 16.84-27 26.71-13.43 9.22-24.59 21.93-33.8 35.11-23.03 22.91-45.04 49.83-61.65 78.28-10.14 13.64-22.58 35.54-13.7 51.06 8.15 18.92 28.83 28.82 45.46 39.63 51.74 27.16 107.28 47 163.34 62.8 48.54 17.15 100.47 30.68 151.61 40.99 15.6 1.73 31.7 6.6 47.3 2.66 10.3-0.08 20.8-2.23 30.8-4.75 61-12.85 121.3-29.59 180.2-50.02 32.7-10.04 67.8-20.34 97.2-36.34l0.9-0.2c27.6-10.45 58.2-21.94 75.7-47.18 15.1-23.78-3.4-51.73-17.8-70.97-21.4-32.62-48.4-61.59-75.9-89.07-3.9-8.08-12.1-13.39-19-18.49-8.7-11.08-20.4-20.12-31.4-28.68-40.8-40.2-94.3-62.01-147.1-81.79 10.7-29.77 39.6-48.21 59.6-71.42 3.5-4.54 1.4-13.59-4.1-13.85zm-1129.1 39.49c-3.15 2.61-7.164 6.71-4.101 10.95 24.175 40.37 52.303 78.2 81.103 115.4 6.91 7.2 22.83 7.82 26.52-3.01 7-14.83-5.81-29.24-14.44-40.35-27.41-29.98-59.26-55.54-89.082-82.99zm1938.3 0.09c-0.3-0.01-0.5 0-0.7 0.02-15.5 17.48-34.5 31.51-50.2 48.64-11.7 6.66-20.5 18.25-29 28.42-12.4 12-28.7 28.26-22.2 47.05 7.1 11.76 24.3 8.48 30.7-2.27 28.1-33.87 51.5-71.41 75.8-108.03 3.6-4.51 2-13.79-4.4-13.83zm-421.5 46.96c-6.5 0.16-13.3 3.14-17.1 7.97-3.5 0.48-6.4 2.34-8.7 4.83-12.9 5.58-25.9 11.99-38.7 17.51-0.6 0.28-1.9 0.84-2.6 1.11-21.8 6.95-44.1 12.52-66.6 16.43-13.7 1.36-27.8 3.8-40.8 7.31-12.3 2.78-24.5 11.1-32.2 20.45-17.9 10.12 10.5 26.43 16.1 35.76 18 23.8 38.3 47.01 62.4 65.03 9.7 9.17 23.5 2.29 34.9 1.39 43.9-10.85 86.4-27.33 127.3-46.35 20.8-8.7 43.8-18.39 60.9-31.54 20-2.79 2.6-24.58-2.3-32.95-1.2-6.23-4.3-13.14-9.7-16.57-14.5-26.94-43.3-48.36-74.5-48.77-2.6-1.18-5.5-1.69-8.4-1.61zm-1101 0.63c-9.1 0.12-17.94 2.3-25.84 7.28-11.8 3.18-22.82 11.6-30.19 21.09-19.27 17.14-32.1 41.28-42.18 64.83 15.18 8.32 28.44 20.58 44.99 26.21 33.78 16.95 70.84 30.77 107.17 42.75 4.45 2.88 9.84 3.9 14.96 4.93 22.8 6.43 53.39 23.99 73.99 3.82 3.21-1.08 5.36-3.72 7.23-6.39 28.33-22.58 49.12-53.8 70.98-82.6-1.02-6.59-6.12-12.85-12.67-14.43-4.7-6.77-15.32-10.55-23.53-12.5-4.66-6.82-16.46-4.11-23.87-6.14-21.33-0.26-41.43-7.47-62.05-11.66-13.81-6.07-28.82-9.83-42.68-16.13-15.05-11.62-36.29-21.32-56.31-21.06zm-274.48 87.96c-11.68 0.43-2.57 22.47-5.39 31.33 18.22 20.31 48.07 27.62 73.05 37.62 12.97 7.98 33 13.62 49.12 9.92 11.8-2.19 11.09-18.61 3.19-25.01-13.2-11.63-31.13-15.24-47.08-21.68-22.62-10.79-45.51-21.65-68.56-31.58-1.69-0.46-3.12-0.65-4.33-0.6zm1659.9 0.74c-39.5 16.52-80.2 31.33-118.6 50.03-15.5 1.47-13.6 29.42 2.4 28.34 27.9 1.8 55.2-13.35 80.9-23.82 13.5-6.02 30.3-11.48 37.6-25.28 0.3-8.76 1.6-22.19-2.3-29.27zm-1476.5 79.17c-2.05 0-4.03 0.57-5.93 1.72-7.88 2.25-11.45 12.66-16.64 18.68-2.29 1.76-4.97 4.09-4.64 7.29 17.65 11.16 36.57 21.89 57.53 24.95l1 0.03c11.14 4.16 24.53 2.9 34.2-4.2 7.23-9.11 8.64-25.45-3.04-31.75-11.72-5.86-24.26-10.7-37.33-12.46-5.85-3-12.46-2.66-18.79-2.55-2.2-1.14-4.32-1.72-6.36-1.71zm1287.2 0.11c-2 0.01-4 0.4-6.2 1.27-20.3 2.12-55.2 4.5-60.7 28.73-6.4 21.61 23.1 30.55 39.2 22.81 12.8-0.82 25.8-5.91 36.8-12.37 8.7-3.34 17.4-8.51 23.8-15.01-3.1-4.78-7.7-8.56-12.8-11.03-4.5-7.17-11.6-14.43-20.1-14.4zm399.8 12.14c-8 0.17-15.2 3.5-22.8 5.77-6-0.75-12.4 0.08-15.5 6.15-10.5 5.1-21.5 8.95-32.1 13.89-1.3-0.52-5.8-5.12-3.9-1.65 3.8 4.99-8.4-0.04-4 5.32-23.8 10.94-47.6 22.08-70.8 34.24-11.7 14.79 2.8 41.79 23.2 32.26 48.3-21.55 88.6-57.04 131.5-87.36v-8.18c-2-0.35-3.8-0.48-5.6-0.44zm-2088.2 0.22v3.47c0.675 2.95 2.3004 5.52 4.9004 7.14 6.8626 5.7 13.462 11.92 21.387 16.15 10.738 8.9 21.15 18.82 33.813 24.89 3.825 3.33 7.387 7.19 12.162 9.18 12.525 8.77 24.6 18.92 38.858 24.8 12.63 10.95 43.2 19.53 45.38-5.08 7.22-21.19-17.09-23.6-30.31-30.01-14.98-7.56-30.478-14.08-46.116-20.11-20.125-8.93-40.686-16.92-61.174-24.89-5.412-4.24-12.338-4.71-18.9-5.54zm1538.7 25.12c-10.2-0.03-20 1.32-28.9 6.41-13.5 6.02-10.8 29.94 5 31.69 23 6.42 55 7.51 71.6-11.21 5.4-7.2 5.6-20.95-3.1-25.25-14.2 1.41-29.7-1.59-44.6-1.64zm-985.55 0.04c-8.09-0.14-16.39 1.01-24.64 1.64h-0.13c-1.66 0.03-3.28 0.13-4.86 0.29-4.18 0.18-8.32 0.14-12.4-0.37-12.51 6.82-9.87 26.18 1.47 32.63 16.37 8.82 36.53 9.29 54.16 5.76 1.97 0.24 4.31 1.09 5.93-0.58 23.22 0.75 24.9-35.77 1.12-36.7-1.76-0.23-5.3-0.65-7.08-0.86-4.41-1.24-8.96-1.74-13.57-1.81zm1313.6 48.54c-5.5-0.03-12 1.2-16 1.89-22.3 0.04-45.6 1.54-66.1 10.76-13.7 4.06-17 24.49-5.8 32.91 23.7 14.94 53.7 3.23 79.8 4.47 17.6 0.05 41.9-5.26 44.8-25.94 1-15.2-15.2-23.66-28.6-22.3-1.8-1.31-4.8-1.78-8.1-1.79zm-1642.2 0.73c-11.05-0.12-21.67 1.58-29.52 8.58-5.27 2-5.54 8.89-5.15 13.57 0.21 13.03 13.27 19.1 23.92 22.61 28.19 7.3 61.71 10.44 88.54 5.15l1.08-0.06c12.08 0.06 21.44-15.94 15.49-24.39-3.59-11.45-16.99-15.94-27.73-18.15-9.75-3.39-20.45-5.01-30.86-4.98-10.2 0.27-23.26-2.2-35.77-2.33zm1482.7 24.89c-24.7 1.12-51.1 1.32-73.2 13.96-7.3 6.41-13.8 19.1-7.8 28.3 9.6 12.96 30.4 10.93 44.1 8.59 22.9 0.21 48.5-4.88 64.4-22.66 0.7-4.78-4.1-8.07-7.2-10.87-4.8-7.13-10.5-17.54-20.3-17.32zm-1322.1 0.18c-9.3 3.7-14.99 14.56-20.06 22.51-15.3 7.52 5.24 18.62 13.84 20.83 12.08 5.68 25.85 8.14 39.19 7.51 8.45 3.1 19.66 1.93 28.46-0.1l1 0.13c15.13 3.01 25.88-17.59 16.19-27.06-0.75-7.07-8.38-12.13-15.08-12.73-18.22-9.54-42.72-6.6-63.54-11.09zm1186.6 17.82c-3.7 0.03-8 0.95-8 1.9-2-0.03-4-0.18-6 0.28-36.4 4.27-78.2 5.57-108.9 27.54-14.8 18.07 12.2 23.15 25.1 19.4 1.4 0.38 2.9 0.41 4.3 0.1 18.1 0.91 36.5-0.12 54.5-2.57l1 0.22c18.1-1.41 36.6-2.99 54.1-7.93 2.9-4.43 3.1-9.87 3-14.96 1.4-8.56-2.1-23.47-13.5-22.06-0.1-1.44-2.7-1.95-5.6-1.92zm-1044.9 1.65c-5.82-0.04-11.61 0.06-17.35 0.25-8 11.43-14.24 32.74 2.4 39.71 34.3 4.51 68.94 8.73 103.59 7.5 8.55 0.31 19.8 2.81 26.91-2.28 7.78-0.1 5.91-11.44 1.03-14.66-33.78-23.75-75.84-30.27-116.58-30.52zm161.03 73.58c-8.69-0.15-16.17 2.03-18.28 10.29-5.9 9.5-3.85 33.25 9.89 32.23 18.72 3.72 38.24 1.1 57.21 1.34 12.38 0.42 46.37 9.14 38.47-14.46-13.78-16.17-36.02-22.92-56.54-25.23-6.39 0.08-19.58-3.97-30.75-4.17zm725.51 2.14c-0.5-0.01-1.1 0-1.7 0.05-29.7 1.07-61.9 4.11-88.3 19.1-14 6.88-5.5 29.34 9.5 22.9 1.4 0.31 2.8 0.26 4.2-0.19 16.8-0.24 34.5 2.1 50.8-1.38 10.2-1.57 29.3 7.1 33.2-4.94 7.9-7.76 9.5-35.2-7.7-35.54zm58.6 6.79c-12-0.16-20.2 12.67-18 24.36l-0.4 0.94c-0.2 5.29 3 10.85 8.5 11.82 25.8 6.14 52.5 7.49 78.9 8.19 15.2 0.72 34.1-16.56 24.9-32.14-27.4-14.55-60.3-7.03-90-12.68-1.3-0.31-2.6-0.47-3.9-0.49zm-868.93 0.63c-22.59-0.23-47.26 7.68-69.67 8.84-18.22 1.63-6.32 28.15 5.59 30.77 13.61 10.76 37.56 2.27 54.26 2.37 13.65-0.11 27.66-2.42 40.56-7.12 10.15-8.89 4.47-29.2-9-31.37-6.91-2.43-14.21-3.42-21.74-3.49zm1022.9 21.04c-1.3 0.08-1.8 2.45-2.4 3.5-6.5 5.05-9.2 13.39-13.8 20.03-1.6 1.92-3.8 3.62-4.5 6.18 23.5 19.23 45.4 40.44 68.5 60.13 5.7 6.24 11 13.59 18.7 17.55 6 7.71 14.3 13.5 22.4 18.8 8.4 8.16 18.9 15.14 30 18.85 0.7 0.21 2.1 0.64 2.9 0.85 6.2 5.59 18.8 5.23 26.2 0.46 12.6-24.86-16.6-45.07-33.1-58.62-9.7-12.33-23.3-22.14-35.8-31.69-23.4-21.92-50.5-39.52-78.1-55.69-0.4-0.27-0.7-0.37-1-0.35zm-1160.6 0.34c-40.04 22.04-75.49 51.36-108.88 82.35-13.96 14.85-32.7 26.6-40.1 46.49-0.9 13.72 14.31 26.87 27.19 18.21 55.62-29.36 95.21-80.35 145.02-117.76-6.52-9.88-14.07-23.23-23.23-29.29zm802.57 7.89c-7.4-0.13-15.4 2.55-20.3 5.66-16.5 3.95-30.9 15.63-41.2 28.74-10.1 12.67-4.2 39.9 14.4 39.39 12.6 3.52 28-3.12 37.7-10.94 3.5-0.59 5.9-3.35 7.7-6.18 14.8-9.55 22.7-31.01 17.1-48.12-3-6.13-9-8.43-15.4-8.55zm-441.67 0.6c-3.51 0.02-6.86 0.62-9.92 1.97-13.54 6.4-10.4 27.84-2.6 37.73 2.17 7.88 8.73 13.96 14.98 18.82 14.3 14.8 40.06 22.14 57.93 9.32 11.69-14.15 5.1-35.93-10.72-43.98-3.59-4.19-8.61-7.05-13.65-9-9.12-7.57-23.51-14.94-36.02-14.86zm317.77 41.67c-1.4 0.02-2.9 0.22-4.4 0.6-11.3 0.14-24.3 0.5-34.6 2.44-30.1 2.11-60.2 4.82-90.4 2.79-0.7-0.05-2.2-0.15-2.9-0.2-12.11-3.18-25.7-1.35-38.25-2.48-0.82 0.1-2.46 0.32-3.27 0.42-25.35-13.18-51.08 17.37-32.47 39.42 43.95 10.3 90.39 15.05 135.39 10.4 14.6-2 29.6-2.54 43.9-5.53 10.7-0.58 21.4-1.88 32-4.19 20.8-5.45 16.4-43.97-5-43.67zm234.8 15.94c-4.2 0.07-8.1 0.77-11.2 2.11-6.9 1.15-24.1 6.34-16.5 15.13 8.1 12.75 0.6 27.18 1.3 40.84-3.7 16.28 28.4 19.98 37.4 14.15 14.7-5.83 18.1-25.52 18.7-39.56 12.3-21.54-11.5-32.98-29.7-32.67zm-668.58 0.16c-9.9 0.02-19.57 3.12-27.27 10.44-1.14 21.96 2.89 45.33 14.94 64.21 8.89-1.45 18.16-1.42 26.79-4.06 12.26 0.3 23.45-9.34 14.87-22.69-0.01-12.68 0.82-25.28 2.67-37.81-9.27-6.19-20.79-10.11-32-10.09zm591.78 10.17c-3.8-0.01-7.6 0.6-10.8 1.77-23 1.73-21.2 34.72-2.5 42.66 15.9 11.79 43.6-7.41 37.7-26.31-0.8-12.46-12.9-18.07-24.4-18.12zm-509.6 0.28c-3.19 0.03-6.31 0.35-9.14 0.84-21.11 3.66-22.4 39.84-2.22 46.07 19.38 6.34 44.8-15.48 35.62-35.67-4.55-8.78-14.7-11.34-24.26-11.24zm665.1 24.28c-15.1 6.21-26.8 21.71-31.1 37.24-17.7 23.21 14.8 44.17 36.3 41.14 5.9 0.68 12.2-0.22 17.3-3.46 7.5-2.85 22.5-8.21 17.3-18.62-3.5-8.73-7.8-18.7-13.8-24.98-5.4-12.04-12.7-27-26-31.32zm-822.59 0.74c-3.05 0.14-5.99 1.36-8.61 4.04-5.95 3.97-10.8 10.64-12.44 17.71-7.18 13.32-20.08 29.22-16.1 45.47 16.37 19.09 48.15 10.75 65.61-3.31 11.93-8.35 7.28-26.96 0.06-35.88-0.23-1.92-0.49-4.04-2.21-5.21-3.25-10-15.43-23.32-26.31-22.82zm-328.73 62.21c-2.27-0.04-4.54 0.32-6.67 1.15-3.07 0.73-7.25 1.02-8.39 4.62-13.38 26.79-10.8 57.45-13.47 86.4 0.3 19.78-2.91 41.59 6.18 59.99 16.4-43.2 26.31-88.77 38.22-133.4 3.57-10.85-6.06-18.59-15.87-18.76zm1481.2 0.27c-7.5-0.09-15.3 3.58-15.1 11.68 2 16.12 6 34.07 11.4 48.65 6.3 28.76 13.8 57.48 21.3 85.96 12.6 12.8 10.1-20 11.1-25.89 3.4-1.57 1.7-13.88 0-15.03-2.5-32.62 3.4-74.44-17.6-101.28-2.3-2.62-6.7-4.04-11.1-4.09zm-1176.2 44.37c-5.91-0.17-11.11 4.28-15.1 8.5-6.19 4.12-11.12 10.69-13.52 17.54-9.64 10.83-13.47 28.1-13.61 42.59-3.71 15.89-0.89 39.49 15.73 47.59 12.74 3.9 26.88 6.7 40.04 3.4 13.16 1.1 18.21-14.3 22.4-24 6.51-8.3 8.9-21.64 11.47-32.04 5.98-14.17 8.48-30.62 9.83-46 12.15-27.26-26.72-8.97-41.16-15.31-2.87-2.85-8.37-0.68-11.88-1.35-1.43-0.59-2.84-0.88-4.2-0.92zm863.2 0.34c-16.9 0.26-34.7 4.66-51.8 3.19 0 9.59 2.9 19 5.1 28.23 5.2 22.71 9.5 48.06 21.1 67.86 1.8 21.2 26.6 23.1 43 21.1 10.8 0.9 24-2.6 27.1-14.5 0.8-1 1-2.2 0.7-3.5 10-35.57 0.3-82.15-33.6-101.78-3.8-0.5-7.7-0.66-11.6-0.6zm48.8 127.18c-14.6 5.4-28.2 15.3-43.2 21-12.5 5.9-35.1 3.6-32.5 22.6 0.6 22.6-18.9 50.1 0.9 68.8 11.1 16.3 27.2 29.5 45.8 36h7.6c2.9-0.7 5.6-2 8.2-3.5l0.8-0.5c7.6-2.8 13.7-8.5 16.7-16.1 9.2-12.4 14-27.5 17.5-42.4 6.1-28.9-0.4-64.7-21.8-85.9zm-951.16 0.4c-7.07 4.4-10.88 12.1-14.95 19-16.67 34-13.68 79.2 7.57 110.5 5.56 9.4 14.7 16.5 25.55 18.5h6.39c3.45-0.6 6.9-1.4 9.74-3.6 24.4-8.9 48.85-32.7 44.49-60.8-2.58-17-4.72-34.2-7.62-51.1-0.17-3.5-4.51-2.6-6.85-3.6-22.96-5.9-44.85-15.4-64.32-28.9z" transform="scale(.8)"/>
</svg>
