<?xml version="1.0" encoding="UTF-8" standalone="no"?>
<svg xmlns:rdf="http://www.w3.org/1999/02/22-rdf-syntax-ns#" xmlns="http://www.w3.org/2000/svg" height="1212pt" width="1379pt" version="1.1" xmlns:cc="http://creativecommons.org/ns#" xmlns:dc="http://purl.org/dc/elements/1.1/" viewBox="0 0 1379 1212">
<path d="m694.32 0c-6.93 0.1375-8.07 7.4246-6.53 13.037 11.07 12.475 28 16.262 43.32 20.85 73.7 23.25 150.92 33.588 227.92 37.463 93.57 3.437 187.17 0.462 280.27-8.213 51.1-8.663 105.4-7.95 153 14.562 33.3 14.688 58.3 45.401 68.8 79.851-3.9 5.98-14.5 2.09-21.2 3.09-30.6-45.55-83.3-72.965-137.3-78.103-111.6-10.375-223.1 7.163-334.4 13.025-157.2 12.688-323.32 18.288-470.76-46.712-24.72-10.225-42.65-33.475-68.5-41.075-18.15 3.313-6.86 26.2 3.44 32.5 22.23 21.113 49.52 36.4 77.44 48.725 87.78 33.16 182.82 44.19 275.93 51.03 79.33 0.92 159.15 3.14 238.35-0.39 67.4-1.3 134.7-8.75 202.2-8.43 38.3-2.2 80.2 12.5 103.6 43.78 4.6 4.82 10.6 22.42-0.7 19.57-32.4 2.13-63.4-8.95-95.1-11.76-4.7 16.18-3.7 39.5 12.6 50.64 16.3 11.66 36.3 16.65 54.5 24.91 11.1 7.5 23.6 13.26 32.5 23.56-15.6 0.88-31.1-2.66-46.5-4.55-17.5 0.74-35.2 1.02-52.5 1.95-22.3 54.1-23.7 118.4 3.9 170.83 16.3 29.17 37 55.92 60.2 79.86 27.8 15.42 59.6 24.02 85.1 43.64 30.4 34.35 50.5 76.21 69.9 117.42 4.8 12.94 19.4 21.83 32.9 17.05 29.8-8.36 51-35.4 59.7-64.17 10.6-63.64-10.8-131.59 13-193.18 6.9-13.96 23.6-24.56 20.7-42.1-2.6-48.94 5.1-97.4 9-146.02 46.6 1.01 113 3.62 134.7-48.43v-7.62c-14.4-11.75-34-10.16-51.1-14.31-32-6.73-64.8-4.43-97.3-4.83-6-41.5-19.5-84.54-53.5-111.85-43.7-35.175-98.5-58.275-154.7-61.512-121-11.65-240.6 16.486-360.9 24.424-29.15 2.262-58.45 3.112-87.7 2.687-51.53-2.187-103.98-4.15-153.44-20.312-20.8-6.688-41.85-12.7-62.13-20.887h-8.71zm491.48 187.58c-1.1-0.07-2.3 0.08-3.7 0.47-13.2 13.8-19 33.59-28.3 49.39-19.8-10.7 2.5-34.1-3.8-49.25-24.5-0.07-26 35.61-36 52.34-6.1-8.72-13.2-20.12-8.2-31.04 1.5-5.31 3-14.1-6.2-10.89-15.1 16.71-15.5 40.33-21.3 60.93-20.2-3.37-0.6-44.05-22.6-42.09-14.9 16.75-17 40.13-22.2 61.01-10-2.45-9.9-16.5-10.5-24.89 3.7-10.6-11.8-15.08-16.9-7.45-10.88 14.18-8.61 33-12.88 49.44-19.53 1.1-17.78-40.05-38.69-27.41-0.23 18.83-0.64 37.7-0.73 56.55-11.5-1.25-18.34-16.04-30.75-13.26-4.39 15.8-2.18 32.67-5.45 48.67-7.38-6.78-12.65-18.41-23.41-20.24-10.59 16.27-7.04 36.74-11.94 54.78-9.93-1.95-14.76-16.73-26.61-14.6-0.23 17.56-1.59 35.41-4.6 52.61-5.78 2.76-14.33-0.31-20.99 2.49-3.79 14.82 0.33 30.42-0.09 45.46-3.26 7.61-15.3-3.24-17.02 6.12-35.94 100.62-93.75 192.44-162.19 274.03-46.45 57.89-116.9 86.28-177.03 126.71-50.27 36.38-101.9 71.39-147.1 114.14-37.07 33.6-54.78 80.8-72.91 125.9-28.01 85.9-29.66 186.8 19.57 265.5 47.73 76 136.85 118.8 225 122h28.58c54.7-1.4 112.62-11.7 154.45-49.9 53.97-52.7 89.66-127.1 87.14-203.5-3.93-121.6-113.86-225.9-233.73-232.6-50.07-4.8-106.82 4.7-142.21 43.5-32.72 36.6-39.24 88.6-38.37 135.7 4.32 61.6 63.92 107.7 123.55 108.1 54.41 4.7 105.7-43.1 107.7-97.1 9.66-1.5 18.44 4.9 22.32 13.4 10.67 28.1 1.9 61.2-20.11 81.2-35.58 29.1-84.21 51.2-130.6 36.6-32.3-10.1-68.05-17-92.71-42.2-31.79-32.2-39.25-79.8-38.14-123.2-1.24-50.2 13.51-104.7 53.15-138.2 32.18-26.9 74.59-37.1 115.6-39.4 56.38-3.9 115.01 5.1 164.86 32.8 53.59 29.9 91.66 82 112.28 139 2.42 6.1 3.5 15.5 12.76 13.6 92.15 12.9 188.24 20.1 279.1-4-26.3-28.1-51.5-58.2-68.37-93-5.27-9.6-6.32-32 10.27-24.3 41.6 80.4 118.7 134.1 190.3 186.2 55.5 38.5 119.3 66.3 166.8 115.5 5.8 6.9 16.3 13.1 14.3 23.5-56.1-6.9-119.2 8.9-170.4-21.1-21.2 4.7-39.2 29.9-64.1 23.1-21.2-10-31.6-32.3-43.8-51-39.6 4-81 16.5-111.39 43.4 25.89 26.1 60.89 39.3 93.89 53.7 25.9 11 54.4 17.6 82.6 14 97.3 0.7 195.9-9.5 292.2 8.4 14.4-0.6 32.1-6.7 35.2-22.8 5.8-29.7-11.3-58.8-34.2-76.6-69.4-61.7-134.1-130.5-187-206.5 69.5-11.8 126.6-55.9 185-92.4 16.5-12.7 36.6-19.6 57.1-22.5 11.9-0.2 23.7-0.2 35.6-0.4 10.9 1.6 25.7 2.6 27.5 16.1 15.4 62.4 12.7 128.5 1.1 191.2 15.6 7.3 26.9 26.9 17.6 43.3-11.9 22.1-43.5 10.7-58.3 29.2-12.7 14.2-8.9 35.1-7.7 52.3 2.7 28.5-1.8 58.1 5.2 86.1 2.1 11 15.6 12.3 21.3 2.9 33.4-40.1 64.1-82.7 91.9-126.9 24.9-36.8 14.2-83.4 10.6-124.8-4.3-28.4-0.4-57.2-3-85.8-1.6-51.6 18.9-100 28.4-149.86 0.9-29.01-33.6-44.05-58.3-34.96-84.5 19.71-171.9 15.82-257.6 21.86-9.7 42.76-15.2 89.46-44.3 124.36-17.1 23.9-44.2 39.8-73.2 43.9-12.6-16.3-16.5-37.5-13.2-57.6 2.1-36.1 4.2-72.9-2.1-108.66-5.2-52.35-36.9-97.13-70.8-135.38-32.7-39.25-74.2-73.55-124.2-87.27 22-4.05 47.9 10.95 70.5 17.23 107.1 39.13 160.5 160.88 156 268.98 1.7 22.5-9.6 43.4-9.4 65.5 1.8 15.9 24.7 12.9 31.4 2 47.6-60.6 43.2-146.05 16.1-214.42-35.2-72.59-92.5-130.98-146.3-189.87-25-33.49-29.8-76.41-37.5-116.27-12.8-70.2-4.5-143.06 14.3-211.36 0.4-17.67 28.2-16.53 23.2 1.96-30.6 139.6 0.7 296.55 97.6 404.35 35.2 37.51 62.2 82.51 79.6 130.88 1.7-53.5-23-102.83-42.7-151.5-23-62.06-13.8-129.84-0.5-192.92-47-34.54-84.9-85.8-89.9-145.44-6.4-58.93 14-115.77 23.4-173.06-12.2-7.16-23.4-16.37-32.6-27.11-3.8-6.79 3.5-26.77-6.2-27.36zm252.7 175.69c25.2-0.18 47.2 15.47 66.2 30.79 13.2 10.98 22.9 29.4 14.8 46.44-18.6 12.51-38.9-5.26-51.1-18.88-13.6-18.14-31.5-36.47-37.8-57.77 2.7-0.38 5.3-0.56 7.9-0.58zm-886.01 201.41c-2.76-0.05-5.49 0.41-7.71 1.41l-0.99 0.15c-29.1 5.99-57.91 14.48-85.26 26.07-52.54 16.95-97.71 55.65-118.74 107.23-10.95 21.32-17.13 44.62-26.35 66.65-4.1-0.45-8.08-1.64-12.09-2.55-26.45-8.97-53.61-16.51-81.38-20.03-22.31-3.06-45.38-4.29-67.59-0.07-33.86 5.23-66.63 21.77-92.218 44-22.6 21.82-45.774 45-60.162 73.26v12.5c13.538 7.41 26.638-11.62 38.988-17.11 31.525-16.51 68.762-19.12 103.29-12.12 30.12 6.18 58.08 19.63 83.86 36.12 29.7 21.66 53.97 49.41 77.85 76.91 4.56 3.31 6.62 21.25 14.85 14.22 19.21-16.28 40.06-30.71 58.78-47.51 6.18-4.1 12.4-8.27 17.58-13.62 14.21-11.14 28.97-21.69 42.34-33.81 0.32-0.32 0.97-0.94 1.3-1.27 0.9-0.61 1.72-1.24 2.48-1.89 4.38-3 9.83-5.38 12.28-9.78-3.08-18.83-4.9-37.9-7.32-56.78-0.04-6.17 0.11-12.3-0.09-18.44 1.82-54.86 16.57-110.48 52.91-152.9 11.42-13.62 24.98-25.06 38.59-36.41 9.1-6.67 20.77-11.16 27.59-20.19 4.02-9.07-4.52-13.88-12.79-14.04zm825.31 49.44c-16.1 27.33-22.6 60.76-18.7 91.97 4.1 46.66 33.8 89.66 69.6 117.48 5 7.17 18.9 0.32 13.4-8.82-5.6-7.55-8.5-16.26-8.3-25.7-0.2-22.16-1.5-44.34 0-66.46 7.8-15.8 8.6-35.53-2.2-50.41-14.8-21.59-30.6-44.83-53.8-58.06z" transform="scale(.8)"/>
</svg>
