<?xml version="1.0" encoding="UTF-8" standalone="no"?>
<svg xmlns:rdf="http://www.w3.org/1999/02/22-rdf-syntax-ns#" xmlns="http://www.w3.org/2000/svg" height="1471pt" width="1344pt" version="1.1" xmlns:cc="http://creativecommons.org/ns#" xmlns:dc="http://purl.org/dc/elements/1.1/" viewBox="0 0 1344 1471">
<path d="m607.99 0c-56.99 0.9-125.05 19.126-147.74 77.738-12.43 29.872-13.55 63.572-9.31 95.302l0.16 1.03c-0.46 4.23 4.21 10.92-1.14 13.08-77.61 44.14-139.85 116.58-164.68 203.09 23.62-28.78 55.71-54.75 94.9-55.28l1.12 0.03c32.23-2.33 60.51 20.38 71.92 49.3 19.2 47.56 18.68 100.4 14.17 150.7-0.27 7.87-2.15 16.92 2.71 23.83 11.69-7.1 21.02-17.57 29.97-27.81 7.58-6.52 16.77-10.71 25.24-15.89 4.2-1.32 8.28-2.99 12.14-5.09 34.77-8.25 69.09-27.54 82.31-62.78 17.9-48.13 75.84-67.21 122.85-57.37 39.74 6.62 66.13 39.41 100.15 57.51 11.24 5.06 19.75-8.7 15.98-18.58-5.45-57.2-19-117.26-56.45-162.41-17.23-23.69-40.27-43.55-65.79-57.9-12.64-8.25-26.05-15.26-39.96-21.06-24.3-10.46-50.5-17.23-76.85-19.54-0.75-0.09-2.26-0.27-3.01-0.37-29.58-5.59-59.17 0.19-88.34 5.01-0.83 0.02-2.45 0.08-3.27 0.12-18.18 0.08-36.67-8.71-43.95-26.21l-0.23-0.99c-7.69-27.55-0.04-56.535 16.72-78.985 2.45-1.725 4.87-3.599 6.33-6.299 1.22-1.275 2.46-2.564 3.68-3.864 30.69-24.112 69.41-35.675 107.87-38.488 0.56-0.037 1.67-0.099 2.23-0.136 11.23-0.563 22.44 0.161 33.64 0.886l1.04 0.102c57.33 8.037 108.24 36.949 157.9 64.824 54.61 35.76 106.06 76.3 157.45 116.45 5.46 6.51 12.41 11.64 19.41 16.4 21.04 17.84 41.94 36.11 64.14 52.37 15.6 13.58 30.9 27.89 48.5 38.84 36.3 28.75 70.4 61.47 112.7 81.47 54.2 32.41 120.2 45.85 182.6 34.53 74.5-11.05 141.8-78.91 134.8-157.1 1.9-28.85-8.8-58.55-23.6-82.85-6.6-18.05-18.6-33.57-29.9-48.89-14.1-20.77-29-41.658-46.5-59.72 9.9 18.95 15.7 39.59 19 60.68 5.2 42.71-17.1 83.7-48 111.5-34.9 33.97-68.1 70.23-104.2 102.75-27.6-4.83-53.7-17.18-80.8-24.44-85.5-34.21-154.2-98.44-228.61-150.4-21.1-17.54-43.81-33.34-67.23-47.6-27.8-19.71-56.98-38.202-87.38-53.564-0.69-0.325-2.07-0.964-2.75-1.289-46.04-26.538-95.27-49.762-147.09-62.35-4.3-1.5374-9.37 0.538-12.93-2.8495-14.76-5.6375-31.51-4.1-46.82-7.4375h-15.1zm-236.36 365.38c-16.22 0.24-34.57 9.84-45.34 19.66-0.34 0.3-1.03 0.87-1.38 1.17-25.32 17.49-42.81 44.21-62.36 67.6-25.17 42.87-54.31 83.44-77.65 127.35-16.7 26.7-31.31 56.78-35.94 88.19-7.17 22.62 0.81 59.5 31.51 55.43 23.74 1.75 46.44-12.14 63.14-27.49 13.58-10.77 27.66-23.09 37.21-37.47 13.19-13.05 28.08-26.28 38.98-41.25 11.35-9.86 20.26-24.07 26.14-37.75 20.74-28.57 35.01-65.22 45.15-99.87 7.04-13.25 10.29-31.29 12.75-46.92l-0.05-0.98c3.31-15.85 3.95-35.07-3.97-49.87-0.23-0.57-0.72-1.68-0.96-2.23-6.01-11.52-16.13-15.74-27.23-15.57zm356.92 59.62c-30.95-0.08-63.96 10.59-86.16 32.41-7.89 3.74-12.44 11.83-18.11 18.12-24.22 23.17-17.44 65.49-45.6 85.66-14.89 10.59-30.71-0.33-45.14-4.85-24.97-19.9-45.88 20.97-56.05 39.87-20.79 33.58-39.48 70.08-50.21 108.57-33.72 91.11-51.21 188.57-49.06 285.68 1.79 34.54 1.57 71.24 16.84 103.24 10.68 29.9 54.1 17.6 59.7-9 3.33-53.2 7.77-106.62 20.1-158.58 20.92-64.53 40.58-129.88 70.14-191.15 31.61-61.47 56.78-129.73 108.3-177.92 15.33-15.91 50.11-27.8 66.32-12.41-67.62 18.22-107.01 91.5-103.53 158.47-25.2 7.27-41.1 30.45-53.34 52.14-35.64 68.13-52.84 146-48.31 222.8 2 28.45 11.45 59.45 36.03 76.45 25.35 17 58.48 19.8 87.24 10.7 38.48-10.3 77.32-29.6 117.32-24.4-28.1 13.6-57.84 24.1-83.92 41.6-23.35 15.2-48.26 28.8-75.33 35.9-38.27 8.6-76-11.6-104.25-34.2-7.04 39.4-0.37 79.8 5.31 119.1 9.01 73.1 53.01 142.8 118.75 177.5 58.76 31.1 133.71 4.2 171.38-47.5 37.97-43.4 54.13-115.8 117.67-129.5-45.94 43.9-68.7 106.8-96 163.7-30.72 54.2-99.3 66.1-155.04 64.8 38.26 12.5 78.24 24.4 118.96 17.8 87.66-9.1 159.68-67.5 218.75-128.6-28.25 63.9-78.81 120.5-144.88 146.3-33.22 13.6-69.04 19.3-104.71 21.5-18.28 0.3-38.06-1.9-55.52-0.9 7.01 5.2 13.11 12.1 21.26 15.5 59.35 44.6 134.54 75.1 210.11 67.6-6.48-53.4 18.63-104.3 44.49-149.3 26.98-37.2 54.14-75 86.64-107.2-3.9-10.2-11.4-18.8-16-28.7-8.4-21-10-45.1-1.4-66.2 7.6-8.8 20.5-13.5 31.1-7 4.1 65.1 16.4 136.6 66.6 183 45.5 43.2 114 45.5 172.2 33.9 14.7-2.5 34.9-13.7 25.7-31.7-21.1-6.4-43.3 4.1-64.7-1.6-37-5.6-87.1 3.9-108.4-35.5-21.1-44.4-14.7-99.7 9.1-141.9 38 12.2 75.7 28.3 115.7 34 18.6-0.3 40.1-2.5 52.3-18.6 13.6-19.9 11.4-47.5-2.4-66.8-26.5-36.9-66.1-60.9-103.4-85.4 0.6-2.4 2-5 4.9-5 26-4.8 51.9-10.6 77.9-15.4 34.2 7 75.8 14.9 105-9.1 27.2-29.5 7.2-71.82-9.1-101.72-30-52.09-93.6-71.04-150.2-72.48-29.2-2.26-58.4 9.85-87.3 2.64-31.5-14.18-34.9-55.59-65.1-71.28-13.7-8.45-31.4-6.25-45.1-13.77 24-9.44 53.8-7.52 73.6 10.25 15.1 14.82 23.9 36.98 44.5 45.5 15.1 0.81 19-17.74 17-29.18-0.9-33.57-32-58.54-62.7-65.36-5-4.12-15.4-4.46-22.1-6.46 3 3.9 7.6 7.01 12.2 8.58 2.6 5.48 19.9 11.56 15.2 15.38-95.4-36.82-202.01 10.14-296.11-32.22-37.87-18.6-59.56-61.54-51.48-103.14 9.07-35.84 40.56-63.25 73.93-78.53 6.02-1.08 0.45-2.89-1.34-2.41-21.09 2.01-44.14 7.34-61.02 18.99-56.19 25.69-81.32 99.1-60.04 155.85 13.7 35.71 50.41 55.81 86 63.99 73.31 19.61 149.57-0.68 223.66 12.56 8.7 3.59 18.2 9.31 22.1 18.07-48.1-5.32-96.14 3.39-144.2 5.88-68.02 6.96-142.61-0.5-198.83-43.01-34.63-23.58-53.46-67.45-46.77-108.85 3.05-43.08 27.58-82.61 61.6-108.39 37.19-28.07 82-44.84 127.46-53.59 39.14-8.38 79.08-4.62 118.65-4.26 0.55 0.04 1.64 0.11 2.18 0.15 6.19 2.49 30.11 5.65 20.51-6.06-14.95-17.24-38.73-23.82-60.25-28.58-0.49-0.01-1.49-0.01-1.97-0.02-30.16-6.42-61.7 2.65-90.42 12.26-17.62-4.51-27.7-21.66-41.16-32.54-13.92-19.81-38.95-31.08-62.51-33.58-8.06-1.69-16.57-2.55-25.24-2.57zm-293.51 33.93c-3.52-0.2-7.18 2.41-7.64 6.08-8.87 33.49-24.16 64.69-37.29 96.55-10.65 16.05-20.2 35.56-31.26 52.29-8.2 8.52-15.63 18.28-21.29 28.76-5.58 5.28-10.41 11.63-14.59 18.13-2.61 13.21 14.43 13.66 23.15 15.07 11.48 9.04 22.6 18.73 31.42 30.47 5.77 8.15 22.95 6.4 24.39-4.53 14.86-67.07 28.79-134.39 40.17-202.15 1.35-13.04 4.59-28.06-3.71-39.46-1.02-0.76-2.17-1.14-3.35-1.21zm658.26 97.24c-6.7 0-13.4 0.06-20 0.12-3.1 2.21-5.3 5.4-7 8.72 9.2 11.83 17.2 29.2 9.7 43.61-9.9-3.43-18.5-12.57-29.6-13.61-16.6-6.24-41.7-11.53-56.2 2.79-7.33 11.74-8.65 31.24 1.16 40.95 24.84 33.74 73.34 20.32 109.44 24.66 27.6 3.75 55.6 3.72 83.3 6.05l1.1 0.15c19.2 3.99 37.6 10.84 54.7 20.45 5.5 4.93 11.5 9.64 17.7 13.56 11.8 13.83 21.9 30.24 28.8 46.24 9.5 27.48 3.1 56.18 5.3 84.65-3.6 5.06-1.2 11.71-1.7 17.44 19.4 3.44 38.5 8.32 57.6 13.02 8.6 2.5 22.9 16.32 29.5 3.32 22-27.93 47.8-58.65 47.8-96.08-1.5-7.97-2-17.16-7.4-23.57-13.3-30.49-39.6-59.63-72.4-68.98-0.2-0.1-0.3-0.19-0.5-0.28-0.8-0.34-1.6-0.54-2.4-0.5-17.6-8.58-39.9-14.77-58.5-23.85-7.7-6.23-17-10.55-25.2-16.1-18.2-13.12-15-33.63-1.2-47.77 3.7-3.36 8.8-8.17 8.5-13.26-13.1-2.69-26-6.78-39.4-7.93-22.7-5.97-48.8-8.76-73.1-10.94-19.9-2.45-39.9-2.89-60-2.86zm-153.6 5.52c-51 0.52-107.72 34.47-110.7 89.78-9.89 44.85 38.25 75.99 77.79 78.27 57.45 13.65 117.41 2.57 175.71 2.56 15.8 2.49 31.8 3.26 47.6 6.35 13.3 5.21 28.6 12.21 41.5 19.76 2.5 5.98 8.8 9.74 13.6 13.93 11 11.55 13.6 27.44 20 41.21 4.3 14.23 16.1 30.45 32.8 28.85 16.2 2.73 32.7-8.6 35.8-24.8 4.4-22 4-46.61-5.5-67.2-4.9-16.47-17.8-30.62-33.2-38.02-17.7-12.83-39.6-19.96-60.6-24.81-14.2-5.08-29.5-6.94-44.5-7.79-34.8-4.15-70.9-1.59-106.2-2.19-21.3-6.55-41.9-17.77-59.95-31.45-21.86-14.74-24.11-41.76-12.69-63.74 4.43-5.06 7.01-12.54 9.88-18.85-6.88-1.32-14.05-1.93-21.34-1.86zm-829.58 122.84c-5.47 0.17-11.449 4.65-11.157 12.01-0.613 31.98 7.227 64.37 9.287 96.56 3.23 59.05-14.537 116.85-39.662 169.59-0.25 16.1 20.536 30.35 35.612 35.65 12.07-0.15 19.98-13.03 32.49-12.9 12.33-4.22 33.87 5.09 34.57-14.66-4.37-61.27 2.84-123.09 27.56-179.42 3.3-6.27 5.93-13.25 7.28-20.1 4.49-3.14 8.38-15.35-0.91-13.81-14.55 3.91-29.45 9.8-44.95 10.87-25.8-3.18-31.8-34.32-38.25-54.78-0.05-6.19-2.47-12.28-3.23-18.43 0.62-7.53-3.82-10.73-8.64-10.58zm539.45 124.74c10.96 0.03 21.71 1.22 31.55 3.37 36.09 8.22 49.33 53.46 34.7 84.36-2.91 5.24-8.91 9.21-15.14 7.8-11.78-17.44-10.34-43.09-27.94-56.36-15.66-12.78-40.95-9.95-57.83-1.08-28.44 11.33-29 49.28-21.31 74.14 7.8 25.31 37.19 32.91 60.7 31.69 65.73-2.89 123.61-37.98 186.25-53.88 25.51-7.42 54.32 4.76 68.09 27.04-24.08-10.64-51.89-13.34-77.39-6.3-71.57 14.21-126.55 74.92-201.22 77.52-61.39-3.25-101.73-80.36-73.94-134 12.54-39.64 54.34-54.41 93.48-54.3zm387.73 37.13c14.9 0.02 29.9 3.45 43.3 9.65 6.5 12.19-8.7 17.42-17.7 13.61-18.5-6.87-44.1 2.34-47.2 23.66-6.2 17.28 6.9 32.84 6.8 49.87-2.8 15.29-26.19 13.42-31.06 0.3-11.1-22.7-23.2-51.75-10.18-75.98 9.31-15.39 28.94-19.75 45.74-20.57 3.4-0.37 6.8-0.54 10.3-0.54zm128.9 152.8c34.9 15.1 70 34.9 103.8 52-21.2 4.9-42.8 10.2-64.5 12.5-20.2-14.6-38.6-38.9-39.3-64.5zm-1112.2 9.4c-12.414-0.3-24.785 8.5-33.157 17.3-10.237 7.9-17.338 19.6-20.863 32v5.4c0.7375 3.6 1.7492 7.3 3.5742 10.5 0.6875 1.4 1.4133 2.8 2.3633 4.1 11.5 14.9 32.6 14.6 49.462 13.7 0.538-0.1 1.6-0.3 2.137-0.4 19.15-1.4 26.126-24.6 22.613-40.6 0.325-13.7-2.924-29.3-13.849-38.3-4-2.4-8.144-3.6-12.281-3.7zm75.08 7.6c-1.12 0-2.27 0.1-3.42 0.2-1.69 0.2-5.08 0.7-6.78 0.9-10.96 1.3-20.899 9.5-23.912 20.1-9.6 20-9.288 49.5 8.352 65.5 18.71 14.4 59.29 19.5 67.81-8 11.42-27.3-7.16-78.8-42.05-78.7zm78.2 1.5c-6.07-0.2-11.38 2.4-13.56 10.3 3.79 16.3 10.35 32.4 8.77 49.5-2.36 10.8 3.59 23 14.93 25.1 5.52 3.9 13.17 4 19.74 3.6 13.1 2 27.56-6.6 26.35-21.3-2.15-23.9-16.78-46.1-36.13-59.8-5.38-3.5-13.23-7.3-20.1-7.4zm731.61 20.8c3.93 0.1 7.93 0.6 11.99 1.6-15.11 12.3-36.25 22.5-49.15 39.1-46.21 55-84.3 116.3-120.64 178.1-26.17 37.2-67.57 61.9-110.85 74.2-52.95 16.6-121.95-18.2-126.37-76.7-0.18-10.3-0.13-20.7-0.09-31 2.05-32 17.24-65.2 45.84-81.6 22.18-14.3 49.68-16.6 75.4-17.3 21.46-1 46.64 4.2 59.51 23 9.33 16.5 10.03 37.5 3.44 55.1-5.61 13.6-24.48 17.1-36.5 10.2-2.31-16.3-6.65-35-21.85-44.1-22.93-10.3-54.45 1.5-61.38 26.6-7.44 25.3-8.92 61.1 18.4 75.1 40.71 15.7 91.38 7.2 123.1-23.6 40.6-55.4 72.34-117.5 119.28-168.2 18.15-19.1 42.34-40.8 69.87-40.5zm-583.82 46.7c-7.46 5.9-12.05 17.8-15.18 27.2-13.61 33.5-14.27 70.8-13.71 106.4 0.16 65 25.11 126.7 30.02 191 0.82 3-3.81 12.7 1.67 10.7 19.87-8.8 41.97-11 63.47-10.8 8.24 2.5 17.16 2.5 24.8 6.9-3.96-29.9 7.18-59.3 15.09-87.7 5.99-15.2 10.44-32.5 12.49-49 8.84-33.6-9.09-71.5-18.78-103.7-0.51-7.2-2.39-14.1-3.95-21.1-14.51 1.5-29.1 1.5-43.63 0.1-23.6-6.1-42.13-28.6-48.73-51.1-0.17-6.4-1.9-13.8-3.56-18.9zm983.81 0.6c-18.1-0.4-8.5 26.8-1.2 36.4 6.6 20.1 16.3 41.1 31.1 56.5 11 18.8 26.2-4.9 34.2-13.5 14.9 1.2 14.5 23.4 4.5 31.1-9 18.2-31.8 31.6-32.6 52.7 21.7 12.5 44.9-8.8 56.3-25.4 8.6-6.9 15.1-17.4 20.1-27.2 13.4-16.2 23.3-45.8 2.4-60.1-29.9-25.9-71.4-36.2-108.3-49.4-2.5-0.7-4.6-1.1-6.5-1.1zm-148.4 173.7c-9.6 0.2-18.7 5.2-21.7 15.7-6.3 25.4-5.2 60.3 17.5 77.2 7.6 10.5 23 13 35.3 13.4 15 2.4 33.7 1.3 44.5-11.1 10-13.8 5.2-32.9 15.8-46.5 8.4-12.3 24.9-13 38.2-10.9 9.8 4.9 14.6 16.7 23.6 23 9.5 5.3 20.5-4.3 17.6-14.6 3.4-22.4-26.1-31.3-44.1-29.1-11.5-2-23.3-0.6-34.6 0.7-11.1 11-23.3 21.2-33.8 32.8-19.9 12-25.4-17.3-31.3-30.2-1.8-13.2-14.8-20.7-27-20.4zm-144 104.3c-0.7 0-1.5 0.1-2.3 0.4-7.8 1.8-13.8 7.6-19.1 13.4-30.91 35.9-59.55 77-66.14 125.1-2.92 24.5-6.86 51.9 5.05 74.5 10.54 17.6 42.69 10.7 44.69-9.9 0.7-18.1-5.7-35.4-6.3-53.5-8.59-49.4 11.4-103.1 51-134.3 5.1-5.2 0.2-15.7-6.9-15.7zm33.2 43.4c-4 0-8 1.2-11.1 4-20.3 18.3-22 47.9-30 72.4-5.4 24.1-12.9 49.7-5.9 74.3-1.3 14.5 22.3 24.3 28.3 9.2 5-22.9 5.2-46.6 7-69.9 7.8-24 20.5-46.5 27-70.6 5.3-11.3-5.1-19.4-15.3-19.4zm-675.17 34.4c-3.05 0-6.18 0.4-9.39 1.1-20.68-0.4-41.9 7.4-56.69 22.1-12.7 9.1-28.24 29.7-18.35 45.1 21.36-9.7 43.2 9 63.69 2.7 9.16-0.6 17.8-4 26.64-6.1 19.98-0.5 37.38 17.1 57.86 11.2 13.9-0.9 15.3-21.3 5.09-27.4-17.6-20.7-39.38-49-68.85-48.7zm736.67 10.7c-16-0.3-33.5 7.3-40.3 22.4-12.2 25.2-11.5 55.3-5 81.9 4.4 19.5 32.2 27.3 45.3 11.7 4.9-20.5 7.3-41.6 11.1-62.3 3.6-8.2 6.7-16.6 10-24.9 5-4.3 8.1-11.1 12.8-16.1-3.6-4.8-10-7-15.6-8.5l-1-0.2c-5-2.6-11-3.9-17.3-4zm121.1 7.3c-26.2 0.3-54.1 16.7-67 38.3-22 26-27.3 72.7-3.8 100.6 14.5 12.1 31.1 21.9 47.5 31.3 8 9.1 20.1 14.1 29.8 21.4 5.1-5.8 7.5-15.1 12-21.8 14.5-13.5 31.2-26.4 49.6-35.3 4.9-3.7 18.6-9.2 15.9-16.9-9.7-20.1-27-36.3-32.6-58.4-5-17.6-8.2-39.1-22.3-51.3-8.8-5.5-18.8-7.9-29.1-7.9zm-957.26 66.6c-14.96 0-29.62 6.5-36.73 20.9-6.65 18-5.82 39.1 1.63 56.7 8.64 22.8 45.68 28.9 59.57 11 14.4-9.3 21.61-28.9 20.37-45.7 2.61-27-21.49-42.9-44.84-42.9zm96.3 8.5c-5.15 0-10.29 1.2-14.98 4-13.08 2.6-16.92 17.1-19.56 28.3-1.61 20.2-2.83 44.2 12.99 59.5 11.98 9.2 29.75 10.2 42.41 2 15.81-13.9 16.56-37.8 14.04-57.1 1.94-20.5-16.52-36.7-34.9-36.7zm85.54 0.1c-18.82-0.3-33.82 20.2-31.85 39.3-1.19 20-0.12 51 23.54 57.9 21.35 8.9 39.82-13.9 42.77-33 7.6-21.1 1.6-59.9-26.2-62.8-2.81-0.9-5.57-1.4-8.26-1.4zm872.02 89.3c-25.5 0.2-50.7 14.6-57.6 40.9-8.3 18.7-10.4 49.9 7.1 65.3 17.4 9.6 34.1-10.2 47.7-19.2 11.9-4.3 23-10.7 35.7-12.6 1.4 0.3 2.7 0.3 4-0.1 21.2 4.8 44.6 7.8 63 20.1 21.5-9.8 45-5.3 67.4-7.3 7.1-9.7-7.7-14.8-15.6-14.5l-0.9-0.3c-4-3.9-12.8-5.4-18.8-6-2-1.1-4.2-1.8-6.4-2.3-16.1-7.2-34.3-16.7-50.1-26.2-0.8-1.3-2.2-2.1-3.6-2.8-7.8-9.6-21.7-14.5-32-21.7-11.2-9.1-25.6-13.5-39.9-13.3zm45.7 95.8c-5.2 0-10.5 0.5-15.7 1.3-11.8 2.4-24.7 6.7-31.7 17.2-7.8 9.2-10 22.3-8.5 34.1 1.3 19.7 14.6 37.7 31.2 47.7 13.2 11 30.3 15.5 46.9 18.6h9.1c8-2 17-1.6 24.2-6.1 6.4-2.8 13.1-6 16.5-12.4 17-21.1 10.3-55-11.7-70.2l-1.3-1.3c-10.9-13.3-27.2-21.6-43.5-26.6-5-1.6-10.2-2.2-15.5-2.3zm118 3.8c-21.9-0.1-32.1 26.3-22.6 43.9 9.2 19.5 1.4 47.4 18.6 61.4 7.5 8.3 19.7 7 29.8 7.2 22.4 0.2 48.3-3 62.7-22.5 10.9-9.4 23.2-5.4 30 6.4 9.8 14.3 36 6.3 36.8-11.1 0.4-2 0.5-4.1 0.8-6.1 0.3-0.8 1-2.4 1.3-3.1v-12.9c-1.6-8.5-3.8-17.1-8.6-24.5-5-10.4-12.4-20.5-22.5-26.3-11.8-10-31.4-17.8-45.3-7.3-10.5 2.1-20 7.4-29.8 11.4-17.1-3.3-32.2-13-49.1-16.4-0.5 0-1.6-0.1-2.1-0.1z" transform="scale(.8)"/>
</svg>
