<?xml version="1.0" encoding="UTF-8" standalone="no"?>
<svg xmlns:rdf="http://www.w3.org/1999/02/22-rdf-syntax-ns#" xmlns="http://www.w3.org/2000/svg" height="1399pt" width="1254pt" version="1.1" xmlns:cc="http://creativecommons.org/ns#" xmlns:dc="http://purl.org/dc/elements/1.1/" viewBox="0 0 1254 1399">
<path d="m578.82 0c-65.27 2.425-102.26 73.812-95.43 132.76 2.23 26.35 13.82 61.19-13.11 78.81-41.18 23.75-86.58 47.97-110.52 90.75-32.54 11.27-64.34 30.32-80.5 61.96-19.26 39.41-16.86 86.08-5.17 127.37-13.3 45.19-18.43 97.65-1.3 142.95 1.88 22.45 36.77 4.71 35.85 26.11-7.64 9.98-22.9-1.75-32.42 6.11-4.2 93.63 1.86 188.45 28.09 278.84 3.51 19.95 13.45 44.34-1.85 61.94-19.45 25.5-17.03 63.1 1.38 88.4 4.8 7.4 17.3 11.7 23.06 3.3 11.45-19.9 5.99-44.7 16.01-65.2 26.65-63.3 24.48-133.48 29.21-200.79 0.2-56.53 4.14-114.36-11.03-169.51-6.18-19.7 1.21-40.08 8-58.51 5.04-0.87 6.34 5.26 8.46 8.5 22.01 43.6 45.14 87.65 79.13 123.28 4.16 3.33-0.97 7.49-2.68 10.64-31.7 45.58-50.55 103.04-40.25 158.61 7.19 38.87 45.15 61.08 81.79 65.53 9.81 0.37 4.6 12.24-2.33 12.68-17.87 0.42-35.17-4.92-51.5-11.68-41.71 63.45-65.63 140.35-62.68 216.65 0.73 19.2 11.29 35.2 19.94 51.5-16.96 18.4-35.53-7.4-37.65-24.7-3.02-19.1-2.72-38.5-2.68-57.7 7.58-67 34.25-129.9 63.74-189.78-7.72-9.21-18.31-15.72-27.31-23.64-17.03 34.82-33.41 70.02-47.58 106.12-12.69 69.7-4.9 146.2-43.46 209-17.04 32.3-52.94 50.6-67.83 84.6-35.45 75.2-49.09 158-67.98 238.3-17.85 59-66.23 107.6-122.56 131.2-14.273 7.6-32.022 2.8-45.66 11.5v11.5c14.625 12.7 34.363 2.7 51.338 3.7 37.762 1.3 75.392 5.3 113.15 6.9l0.94 0.8h14.31l0.8-0.9c18.92 0.4 34.15-16.8 31.05-35.7-1.45-48.7 8.45-99.4 37.5-139.4 20.57-19.8 42.82-38 63.22-58 38.08-45.2 43.99-107.4 46.37-164.1 38.9-19 71.37-52.1 89.23-91.5 14.21-50.5 31.05-103.3 67.54-142.5 37.41-37.2 69.95-87.8 65.33-142.3-69.54-38.89-80.09-136.54-42.89-201.39 2.61-9.64 24.31-11.97 20.25 1.1-16.62 35.29-20.18 76.29-13.13 114.45 6.14 28.09 31.08 47.22 56.1 58.13-4.66 33.7 1.62 70.51 23.79 97.21 59.65 77.1 128.6 146.3 195.15 217.3 26.09 31.9 39.21 72.5 43.17 113.1 1.65 20.3 10.88 38.9 21.72 55.8 30.71 44.9 69.92 85.7 118.06 111.9 6.6-3.6-1.7-38.6 14.7-31.2 12.9 18.7-2.9 45.3 4.4 65.9 11.1 20.5 18.3 42.9 25.1 65 0 22 2.3 44 8.1 65.2 3.2 8.8 14.5 10.3 22.4 11.8 40-1.4 80.1-4.2 120.1-6.3 28.4-4.1 56.8 7.2 85.2 2.4 17-0.6 17.5-27.3 3.3-32.5-10.8-5.1-23.2 1.7-34.3-2.9-87.5-23.4-156.8-94.5-188.1-178.2-15.3-35.6-22.1-73.9-34.8-110.3-9.5-25.3-23.1-48.8-34.09-73.4-11.91-27.7-39.18-45.1-51.55-72.5-2.51-26.1 1.38-57.1-17.71-78.3-26.19-28.6-43.73-64.7-50.96-102.8-15.14-78.46-55.69-149.96-107.14-210.36-11.54-25.4-16.27-54.05-32.75-77.2-13.24-24.24-35.59-41.1-52.93-62.08-9.82-15.46-10.73-34.95-6.35-52.37 8.67-40.48 6.27-82.25 13-122.94 9.06-13.65 20.37-26.84 23-43.61 10.07-37.94 11.66-78.45 2.28-116.69 33.85-1.26 68.37 3.5 101.76-3.65 34.5 0.18 43.63-40.54 54.06-64.62 15.08 15.52 2.6 46.03-0.97 63.65 82.75 15.17 166.85-7.07 248.15-22.1 30.8-8.67 61.8 2.17 90.1 13.83 1.1 39.45 0.6 79.16 0.1 118.68-4.9 1.57-9.7-0.89-14.2-2.37-34.6-12.95-75.4-7.46-105.2 14.33-23 17.06-49.3 35.77-79.3 33.2-22.11-2.24-38.06-18.39-54.5-31.36-7.7-3.95-11.89 5.91-8.56 11.37 9.36 20.55 23.4 40.05 42.82 52.03-32.79 99.5-68.45 198.22-102.73 297.29-1.8 6.1-8.61 6.97-13.61 9.13 12.17 58.9 72.48 99.28 131.88 94.59 59 3.59 112.3-38.06 131.4-92.47-19.6-9.07-19.7-35.36-27.7-52.56-26.7-80.24-59.5-158.91-83.5-239.77 48.5-1.39 90.8-36.3 140-28.13 28.5 2.54 47.8 27.97 55.9 52.39 4.8-35.67 42.2-58.62 76.6-53.47 39.4 5.7 76.9 27.35 115.8 30.22-30.2 93.27-63.8 186.16-95 279.4-1.3 5.68-4.8 10.94-11.7 10.06-2.6 13.52 8.2 24.57 14.6 35.34 34.9 55.58 111.7 73.7 170.3 47.98 34.9-14.93 59.9-45.85 77.1-78.74v-5.55c-5.5 1.75-12.8 0.76-13.7-6.32-34.2-99.39-70.4-198.15-102.5-298.28 16.1-15.63 33.1-32.4 41.5-53.79 3.2-6.06-2.5-13.7-9.5-11.03-15.9 13.45-31.7 29.11-52.5 34.35-29 2.75-53.5-16.35-75-33.13-34.2-26.06-82.3-31.65-121.3-13.43-3 2.23-2.4-2.82-2.9-4.6 0.4-13.51 2.9-27.88 0.1-41.12 2.3-23.56-2.1-47.72 1.9-71.04 18.8-6.3 39.8-10.28 54.8-24.35 13.3-12.81 9.2-33.47 1.1-47.86-13.6-19.53-39.8-23.54-61.8-23.7-29.9 5.86-59.7 22.17-90.8 13.84-39.2-7.35-78.1-16.07-117.7-20.57-6.8-0.97-13.8-3.04-20.58-1.61-13.32-0.66-26.63 1.17-39.82 2.79-7.09 0.12-14.29-0.55-21.01 2.16-20.72-0.77-41.55 7.44-62.03 0.94-31.21-7.89-63.4-7.46-95.32-6.82-65.49-16.89-133.14-35.2-201.5-36.17-10.06 0.37-22.98-1.36-30.44 7.11-7.52 2.98-11.91 19.96-20.88 11.24-5.08-11.85 4.56-24.84 8.88-35.77 16.66-28.6 23.74-62.29 44.3-88.64 16.85 0.23 35.89 1.69 47.2-13.62 7.94-4.45 9.08-20.942 20.34-17.405 2.45 31.855-37.93 48.635-64.7 46.475-12.5 26.8-25.39 53.53-37.28 80.61 46.45-7.43 93.84-0.86 139.52 8.48 3.11-16.45 25.64 0.09 29.18-16.29 2.9-28.11-2.85-56.78-2.21-85.11 5.75-7.51 13.2-13.69 17.51-22.33 4.7-5.672 0.73-14.048-0.11-20.485-3.03-11.413-9.79-22.038-19.15-29.301-5.68-6.825-11.88-13.487-19.91-17.5-29.79-26.7-70.36-29.049-107.83-35.074h-4.54zm71.09 397.57c7.26 0.08 9.75 8.82 11.88 14.61 2.03 34.31-10.01 70.41-35.3 94.31-29.76 26.06-75.57 26.2-109.04 7.3-19.1-8.54-32.09-25.71-47.64-38.49 21.37 71.39 49.61 146.21 51.76 219.55-19.75-89.26-48.16-176.25-75.37-263.41 21.26 25.76 42.19 55.91 73.76 71.09 38.38 21.67 94.52 8.83 114.07-32.29 9.03-23.24 4.39-50.38 15.16-72.65 0.24-0.02 0.48-0.02 0.72-0.02zm-317.47 54.89c7.91 36.94 20.39 80.69 56.74 100.83 2.07 1.13 8.77 4.33 3.66 5.85-14.43 7.22-32.95 1.35-40.49-12.8-17.74-28-16.09-62.24-19.91-93.88zm671.46 124.04c34 95.32 66.8 194.08 98.5 291.05-62.3 2.89-129.35 0.25-193.5 1.31-4.37 1.03-8.56-4.07-6.06-8.36 33.64-94.69 67.05-189.45 101.06-284zm431.6 2.39c0.2 0.01 0.3 0.03 0.5 0.07 31.9 92.97 64.2 185.82 96.4 278.69 1 4.33 4.1 13.11-4.5 10.17-32.1 0.04-64.1 1.12-96.3 0.59-4.9-1.29-9.7-0.7-14.5-0.1-27.1 1.05-54.6-1.15-81.7 0.22-3.6-0.64-0.1-6.85 0.3-7.91 32.3-92.24 64.7-184.5 96.9-276.8 0.9-1.7 0.5-5.04 2.9-4.93zm-687.86 314.84c1.44-0.04 2.88 0.04 4.32 0.23 5.79 30.83 17.53 60.08 28.49 89.34 10.66 31.9 33.13 57.8 49.55 86.7 30.44 45 50.5 103 32.96 156.7-0.41 6.8-14.56 7.2-10.11-1.3 2.81-23.6 3.41-47.7 0.62-71.3-8.48-34.7-28.99-64.8-48.44-94.1-24.18-34.2-44.36-71.36-60.02-110.07-21.75 19.06-53.85 20.82-78.87 7.63 35.51-6.88 57.66-37.32 77.18-63.37 1.44-0.27 2.88-0.42 4.32-0.46zm-422.64 423.67c9.44 0 16.31 10.3 15.25 19.7-26.67-7-50.26 12.1-64.34 32.6-3.16 3.8-2.19-3-1.16-4.7 9.4-20 24.86-39.3 46.06-47 1.44-0.4 2.84-0.6 4.19-0.6z" transform="scale(.8)"/>
</svg>
