<?xml version="1.0" encoding="UTF-8" standalone="no"?>
<svg xmlns:rdf="http://www.w3.org/1999/02/22-rdf-syntax-ns#" xmlns="http://www.w3.org/2000/svg" height="1297pt" width="1446pt" version="1.1" xmlns:cc="http://creativecommons.org/ns#" xmlns:dc="http://purl.org/dc/elements/1.1/" viewBox="0 0 1446 1297">
<path d="m1002.3 0c-6.8 9.725-14.59 18.725-21.37 28.475-6.15 7.25-12.33 14.5-17.47 22.5-29.68 39.925-61 78.535-99.27 110.68-19.29 17.25-41.6 30.34-63.08 44.48-2.62 1.12-5.21 2.31-7.73 3.64-12.46 6.73-25.69 11.68-38.47 17.67-16.45 5.19-32.89 10.42-49.87 13.69-17.14 3.55-34.58 4.58-51.94 6.12-13.16 0.58-26.49-0.02-39.5 2.42-26.96 1.93-53.94 5.91-80.14 12.57-84.16 16.51-165.56 51.52-230.06 108.89-24.24 20.47-48.01 42.13-67.45 67.33-9.68 11.33-19.59 23.02-26.1 36.52-16.73 27.09-27.35 57.95-34.56 88.86l-0.26 0.91c-9.93 31.04-13.21 63.99-15.33 96.4-1.11 14.06-2.36 28.57 0.2 42.55 0.35 29.35 3.14 58.89 9.85 87.49 2.85 20.55 8.26 40.75 14.89 60.39 28.1 92.57 85.31 176.51 162.87 234.61 69.85 50.6 148.04 92.7 233.45 109-12.28-16.4-24.12-33.2-37.05-49.1-14.32-21.3-27.36-43.6-41.47-64.9-21.19-41.7-42.63-85.3-45.89-132.8-3.26-34.27 1.26-71.29 22.05-99.79 6.54-6.01 13.24-11.85 20.26-17.29 40.54-20.35 87.14-8.79 129.92-3.61-8.43-9.13-18.48-16.68-27.64-25.06-4.35-5.26-8.75-10.67-14.79-14.06-6.54-8.76-14.51-16.28-22.51-23.68-2.83-4.19-6.32-7.87-10.08-11.2-16.14-19.16-30.44-39.74-44.94-60.07-15.63-28.97-29.73-59.43-33.46-92.53-1.71-17.91-0.72-35.94 2.19-53.66 8.19-36.41 28.05-69.31 54.63-95.27 45.97-43.75 105.07-69.2 163.62-91.34 28.11-9.3 56.81-16.49 85.67-23.02 13.64-2.18 27.32-4.18 40.91-6.67 26.78-2.51 53.66-4.6 80.28-8.44l1.08-0.14c14-1.47 28.11-1.26 42.1 0.43 27.39 2.3 54.66 5.84 82.06 7.96 5.4 0.99 10.8 1.59 16.3 1.53 17.8 2.71 35.8 4.26 53.7 6.3 46.1 4.47 91.9 12.11 137.1 22.57 5.6 0.67 12.9 5 17.6-0.14-21.9-27.42-53.2-51.28-89.5-53.06-17.4-2.45-34.9 5.55-52 3.28 5-10.86 20.8-9.21 29.9-15.23 12.7-1.45 11.1-19.77 0.6-23.06-23.6-7.84-48 1.45-71.3 5.36-2.7 0.05-7.5-3.1-6.1-5.55 12.9-5.25 26.5-9.21 39.2-15.08 0.7-16.3-9.2-34.53-25.9-38.12-18.4-4.4-34.1 8.52-51.3 12.3-2.2 0.08-6.5-0.86-4.1-3.66 11-9.59 26.4-12.85 36.6-23.76 10.2-13.99 0-38.05-18.7-35.85-17.6 2.46-33.3 13.07-51.2 14.97-3.61 0.41-3.94-4.42-3.76-7.04 14.96-7.7 32.66-9.53 46.06-20.47 14-8.85 8.1-36.72-9.8-35.76-18.9 2.82-34.36 15.57-50.08 25.62-11.98-14.83 17.73-21.36 25.04-32.33 8.74-4.84 16.54-12.39 19.14-22.354 4.8-22.088 1.9-46.051-1.8-68.338 0.4-8.513-0.1-20.55-10.2-23.088h-1.1zm-307.43 385.92c-5.59-0.03-11.23 1.49-16.01 4.33-22.7 12.05-47.5 22.89-63.89 43.54-3.21 4.85-7.18 15.46 0.02 18.68 6.17 7.62 19 3.83 27.47 2.72 29.2 6.2 58.03 16.45 87.9 18.5 22.87-5.63 6.79-31.24-5.22-39.99-11.05-11.88-9.19-28.61-14.58-42.81-4.57-3.35-10.1-4.93-15.69-4.97zm405.23 22.47c-53.7-0.1-108.63 10.57-158.88 27.96-20.22 4.97-39.72 13.09-58.96 21.01 5.35 6.82 12.23 12.36 19.23 17.4 14.19 15.95 29.69 31.39 44.94 46.35 13.27 18.2 27.81 35.94 39.78 55.17 8.35 19.1 18.99 38.02 19.89 59.43-9 6.74-23.33 5.97-32.21 10.72-24.18 3.35-48.54 4.86-72.9 5.93-2.91-0.42-8.55-1.3-6.06 2.68 16.07 30.87 47.2 50.66 77.06 66.6 3.31 1.37 6.29 4.81 10.07 4.25 16.12 9.12 33.84 17.1 51.94 21.42 23.7 10.44 52.1 16.78 78.8 14.95 26.9-8.87 53-23.91 72.1-44.91 1.6-0.84 3.6-1.75 3.6-3.94 11-7.26 19-20.26 25.5-31.82 7.8-13.04 14.1-27.78 15.9-42.97 9.1-32.83 2.5-74.4-10.1-107.21-5.3-18.52-13.2-36.76-23.5-52.95-16.5-27.97-33.8-73.35-73.3-69.36-7.6-0.47-15.2-0.7-22.9-0.71zm126.3 17.33c-3.2 0.16 4 7.01 5.3 9.06 42.8 49.21 74.7 107.07 100.7 166.57 23.3 56.66 36.6 131.8-8.6 181.21-40.8 33.4-94 15.68-140.8 11.05 9.1 12.13 22.4 23.45 34.6 33.74 2.9 3.74 5.7 7.73 9.8 10.2 4.1 6.25 9.3 11.56 15.1 16.19 40.9 43.71 81.2 93.39 90.6 154.36 11.1 52-5.5 108.3-42.2 146.5-19.9 24-46.1 41.4-72.1 58.1-31.8 17.9-65 33.4-98.7 47.3-42.2 13.9-85.6 23.8-129.51 30.1-41.08 1.9-81.74 10.5-122.93 9.7-33.81-2.7-67.54-6.6-101.31-9.8-33.78-4.5-67.62-8.5-101.45-12.6-34.36-5.2-69.21-9.7-102.12-21.1-12.82 5.9 7.14 21.5 13.29 25.2 20.94 16.3 46.12 29.7 73.14 30.8 3.03 0.2 6.08 0.3 9.14 0.2 12.67 2 31.81-9.8 40.44 0.1-7.88 11.9-34.25 5.1-39.97 21.3 2.22 9.4 12.85 13.2 20.9 16.5 14.99 5.3 30.36-3.7 45.37-5.1 6.99-1 15.05-4.7 21.48-0.3-10.91 8.3-26.36 10.1-38.98 15.8-0.13 19.9 19.44 46.9 41.4 39.7 13.86-1.8 27.56-14.2 41.31-9.2-6.97 12-24.52 11.5-34.8 20.3-13.96 8.6-10.7 32 3.09 39.1 19.89 5.4 38.7-7.3 57.34-12.5 5.72-2.8 10.09 1 7.01 7-15.89 8.2-32.77 14.7-48.65 22.8-8.75 12.7 2.07 30.3 14.55 35.6 17.46-7.9 33.55-19.3 51.17-27.2 6 6.3-1.12 12.1-6.35 16-21.64 15.2-46.02 37.6-39.71 67.2-0.01 20.8 4.61 41.2 7.6 61.6h9.06c12.82-13.7 21.49-30.7 31.8-46.3 54.19-66.9 112.3-136.2 192.69-172.2 32.4-12.1 66.7-17.3 100.4-24 59.2-7.3 119.7-8.3 177.2-26 91.2-25.6 180.1-71 242.3-143.9 32.9-35.5 58.4-78.7 72.6-125.1 24.4-70.4 26.9-147.36 17.6-220.77-5.6-50.12-18.3-99.99-40-145.64-20.1-46.58-49.1-89.4-83.9-126.33-77-82.81-179.9-141.66-290.9-164.14-2-0.81-3.3-1.13-4-1.1zm-118 24.22c25.1-0.45 34.9 39.31 14.1 52.62-14.5 6.02-36.8 5.37-44-11.13-8.7-17.83 6.6-38.05 24.7-40.84 1.8-0.41 3.5-0.62 5.2-0.65zm126.5 52.71c12.5 28.44 22.4 60.36 27.7 89.32l0.2 1.12c1.7 20.69 1.2 41.53-0.1 62.23-4 20.22-11.7 39.68-22.5 57.3-9.6 8.56-17.6 19.13-27.6 27.42-22 13.45-46.3 23.55-71.8 28.22-4.7 0.69 0.7 4.1 3 4.3 22.4 14.9 53.3 11.26 79.2 9.2 42.9-2.81 90-28.27 97.2-74.17 10.6-39.71-6.5-80.57-25.1-115.12-16.1-31.83-30.4-68.26-60.2-89.82zm-1093.8 48.64c-0.61-0.02-1.23 0.06-1.82 0.24-22.02 20.1-43.421 42.07-70.808 54.86 17.475 8.4 35.388 17.04 53.708 23.41 9.02-22.8 16.04-46.37 24.44-69.4 3.12-4.54-1.22-9.02-5.52-9.11zm1417 15.73c-2.3 0-3.7 3.51 0.5 5.63 0.7 0.94 1.5 1.76 2.6 2.45 5.4 9.69 12.4 19.51 20.3 27.1 5 8.16 10 17.81 17.5 23.89 7.7 17.55 22 33 43.7 24.86 9.8 0.9 19.7 0.35 29.6-0.06 18.2 1.07 36.6-0.19 54.9 0.68-2.3-3.52-8.6-5.59-13.3-8.36-0.1-0.07-0.1-0.15-0.2-0.22-0.6-0.61-1.5-1.18-2.6-1.67-5.4-5.35-10.7-10.89-16-16.42-8.8-16.02-15.4-33.74-15.5-52.29-5-0.11-9.9-0.1-14.8 0.03-1.8-0.03-3.6-0.01-5.3-0.18-21.3-2.5-43.8-1.96-65.6-2.75-10.3-2.37-22.6-1.07-33.2-1.33-0.9-0.97-1.8-1.36-2.6-1.36zm-1481.3 64.07c-1.652-0.03-3 0.3-3.889 1.11-4.95 14.15-13.075 26.79-21.525 39.1-8.263 7.6-15.113 16.65-23.838 23.82 4.738 5.03 13.638 5.9 20.312 7.08 16.65 8.15 37.564 13.14 55.868 19.14 6.07 3.3 13.03 6 20 6.02 0.1-26.82 0.22-53.65-0.06-80.47-7.16-2.08-13.81-6.31-21.37-6.7-5.515-2.27-18.341-8.98-25.498-9.1zm1552.3 36.15c0.8 4.8 2.6 10.22 5.8 14.07 5.3 16.53 11.3 33 17.8 49.04 2.2 12.04 7.1 23.79 10.2 35.72 34.3 0.02 72.3 0.94 104.2-0.46-24.2-27.21-19.1-68.18-1.1-97.21-43.1-2.3-91.7 0.05-136.9-1.16zm-986.63 8.96c-2.76-0.04-5.52 0.6-7.9 2.04-18.48 10-36.29 21.66-52.19 35.41-6.99 3.35-13.32 8.36-18.73 13.85 9.93 10.84 20.3 21.6 31.57 31.05 8.58 11.56 21.43 19.39 30.57 30.63 4.98 6.81 3.9-7.62 4.57-8.87-0.38-31.67 16.18-59.06 25.69-88.21 2.82-9.53-5.33-15.79-13.58-15.9zm-604.83 41.55c-1.775 10.14-0.2 20.6-0.412 30.85 3.425 33.45-16.725 61.85-37.225 85.91v1.19c46.138-1.59 92.35-0.34 138.53-0.6-0.07-5.68-1.53-11.18-3.13-16.54l-0.35-1.03c-4.44-23.47-7.81-47.12-11.61-70.68-6.28-3.11-13.08-4.96-19.78-6.88-22.073-7.2-43.711-15.78-66.023-22.22zm1769.9 68.01c-45.8 1.23-91.6 0-137.4 0.56 3.4 30.12 7.2 60.37 12 90.27 9.9 3.26 19.9 6.74 30.3 8.52 17.3 6.83 35.5 11.4 53.4 16.38 2.3 1.01 4.6 1.79 7.1 2.2-0.3-17.33-1-34.67-0.1-51.97 3.9-24.77 21.2-44.6 34.7-64.78v-1.18zm-626.4 44.64c2.1 26.26-9.1 50.49-15.9 74.98-5.2 7.32-7.8 19.53-12.7 28.22 8.1 21.82 34 6.35 45.1-4.69 1.4-0.54 2.9-1.17 3.7-2.53 16.3-8.44 30.7-20.29 46-30.26-15.4-16.67-31.8-33.07-48.7-48.48-0.3-0.32-0.9-0.94-1.2-1.26-4.6-6.07-10-11.92-16.3-15.98zm-565.56 7.05c-7.4-0.04-14.88 0.56-21.79 1.58-0.53 0.05-1.59 0.17-2.11 0.23-22.44 1.88-45.9 8.11-64.35 20.96-8.12 1.85-14.65 9.73-19.88 15.92-27.21 26.33-22.06 70.6-12.34 102.56 3.72 18.47 9.88 37.2 18.65 53.8 5.58 14.1 13.49 28.3 22.84 39.7 4.78 10.4 12.59 20 21.05 27.7 3.84 7.4 10.97 13.8 17.54 18.5-10.04-26.2-19.33-54.8-25.33-80.7-6.4-41.49-4.78-86.31 17.25-123.08 17.2-20.53 38.63-38.87 64.55-47.97 12.62-6.67 28.52-6.2 39.77-15.31-4.34-3.44-9.73-5.06-14.92-6.69-3.86-2.89-9.45-2.56-14.03-3.41-7.97-2.64-17.38-3.74-26.9-3.79zm-574.11 17.16c22.187 29.17 19.124 69.54-0.076 99.29 46.175-0.19 92.35-0.35 138.53 0.09-13.76-32.05-26.52-64.94-35.23-98.88-34.39-0.53-68.824 0.45-103.22-0.5zm669.66 4.18c-21.6-0.29-43.1 6.04-58.49 22.57-9.08 4.98-17.34 11.91-23.71 20.05-6.63 2.73-11.9 8.67-15.11 14.89-32.57 27.33-37.87 73.71-35.94 113.4 0.05 19.3 3.51 40.1 9.78 57.6 10.7 38.5 32.14 75.5 60.07 103.7 10.52 29.8 45.57 24.4 70.34 21.3 1.77 0 3.67 0.6 5.4-0.1 32.53-0.8 65.5-5.2 96.91-13.8 37.15-7.7 73.45-20 108.44-34.7-15.62-14.5-30.59-31.1-46.67-44.8-10.85-15.2-25.17-30-37.29-43.6-16.1-25.4-34.02-51.3-39.96-81.64 0.95-3.27-2.07-8.93 2.33-9.98 34.4-12.14 71.28-14.34 107.45-14.75-0.22-5.73-4.9-10.95-8.43-15.15-15.4-21.53-38.65-37.87-62.76-48.53-14.49-9.55-32.19-17.01-48.89-22.55-10.61-7.21-26.76-11.69-39.88-15.02l-1.03-0.21c-12.95-5.21-27.78-8.49-42.56-8.68zm973.81 35.09c-0.4 0-0.8 0.01-1.1 0.03-0.1 26.84 0 53.68-0.1 80.53 3.1 1.8 6.6 2.67 10.1 3.18 1.7 2.19 4.9 1.64 7.3 2.35 9.5 2.85 26.1 15.42 32.9 9.32 6.4-17.93 19.4-32.09 30.9-46.83 6.6-5.37 25.6-19.56 7.8-20.17-23.6-8.82-48-16.05-71.9-23.44-5.1-2.06-10.3-4.95-15.9-4.97zm-1498.7 75.64c-1.05 0.04-1.96 0.2-2.47 0.39-33.17 0.8-67.93-1.15-100.09 0.91 15.237 9.92 26.58 24.28 36.52 39.18 1.12 4.7 2.63 9.4 5.13 13.6 2.56 9.2 1.35 19.9 4.03 28.4l1.08-0.2c4.7-0.2 10.45 2.2 14.54-0.5 35.2 1 73.6 0.1 107.48-1-11.07-13.3-23.52-27.8-34.83-41.6-7.47-12.18-15.85-24.42-25.29-34.95 1.42-3.53-2.96-4.36-6.1-4.23zm1498.9 23.26c-8 21.52-16.2 43.02-24.4 64.42-2 6.4-2.6 19.4 7.8 12.7 23.5-19.1 46.3-39.3 70.4-57.4-18.7-4.4-35.9-13.12-53.8-19.72zm-980.08 122.02c8.56-0.1 17.24 2.5 23.49 7.9 8.2 11.7 8.78 28.2 0.65 40.2-17.45 17.2-54.82 7.8-54.12-19.4-2.28-18.9 13.63-28.6 29.98-28.7zm378.58 33.3c-3.3 0.1-6.5 0.7-9.8 1.9-13.8 6.6-5.9 29.1 6.3 33.7 0.4 0.2 1.1 0.7 1.5 1 14.5 10.7 9.3 33.3 20 45 16.7 17.9 44-8.4 61-15.9 15.3-6.6 48.3-28.4 29.7-47.1-16.1-4.8-37 2.2-55.1-5.2-18.1 0-36.1-13.7-53.6-13.4z" transform="scale(.8)"/>
</svg>
