<?xml version="1.0" encoding="UTF-8" standalone="no"?>
<svg xmlns:rdf="http://www.w3.org/1999/02/22-rdf-syntax-ns#" xmlns="http://www.w3.org/2000/svg" height="1324pt" width="1410pt" version="1.1" xmlns:cc="http://creativecommons.org/ns#" xmlns:dc="http://purl.org/dc/elements/1.1/" viewBox="0 0 1410 1324">
<path d="m1519.9 0c-1.7 13.438-3 26.962-5.3 40.312-14.4 20.088-31.5 38.2-46.1 58.163-70.8 86.575-145.7 169.5-217.3 255.3-9.3 6.85-17.5 15.05-26.3 22.52-5.6 2.91-12.1 4.11-17.7 0.29-25.6-15.38-56.6-27.2-86.6-18.49-38.5 7.31-89.1 13.95-112.5-25.24 28.9-37.58 33.7-87.72 23.1-132.83-1.3-14.09-7.5-31.38 5.2-42.35 28.6-24.39 68.1-26.92 103.5-33.83 16.5-6.04 18.6-31.176 5.3-41.713-25.9-22.213-62.3-24.138-94.7-23.063-39.7 2.3-82.19 11.252-111.95 39.477-42.51 41.489-31.24 106.53-32.4 159.79-2.15 18.26-20.59 26.8-36.55 30-6.05 13.95 0.71 30.91 12.91 39.2 25.66 18.23 58.5 28.27 89.79 20.82 18.33-6.77 23.43 18.99 26.16 31.28-22.37 2.48-46.52-0.89-67.01 10.58-27 12.08-42.86 38.18-64.55 56.85-38.67 7.04-79.4 24.47-100.4 59.49-6.42 25.14-37.77 27.37-51.04 47.65-29.25 29.42-36.65 91.09 7.05 110.78 58.74 21.95 125.06 10.74 182.84-9.63 52.94-22.18 104.25-51.31 161.85-59.58 33.4-3.08 66.5 7.16 99.9 4.18 3.9-0.26 10.2 5.93 3.9 7.26-34.7 11.3-71.7 0.67-107 2.6-25.3 3.38-17.9 40.51 1 47.77 42.9 18.6 88.6-1.74 130.9-11.79 6.1-2.99 15.5 3.51 15.1 10.1-33.9 11.5-69 19.72-104.8 22.29-12 6.23-4.2 23.11 5 28.21 41.5 29.98 96.2 27.05 143.5 15.01 7.2-4.05 11.5 4.03 12.8 9.68-33.4 14.87-70.9 27.25-107.5 17.71-61-13.8-102.4-67.09-131.8-118.79-25.1 5.5-49.25 14.64-73.38 23.43-14.66 4.55-11.25 26.52-1.87 34.91 23.66 19.26 52.35 30.74 79.15 44.31 14.6 19.88 0.7 55.84-26.1 55.85-40.48 4.5-82.27 5.63-122.2-3.51-71.02-11.42-132.01-51.68-199.81-72.71-38.16-13.19-79.03-20.79-119.42-17.79-39.12 1.86-77.31 16.26-110.52 35.26 4.44-55.34 8.95-126.04-33.23-171.82-41.67-37.83-111.76-34.35-153.63 1.75-28.61 24.39-43.08 60.87-52.34 96.37-24.06 62.25-48.5 125.34-87.47 180.06-18.62 24.28-43.342 51.71-77.079 48.87-17.388 1.19-28.876-13.15-41.551-22.46-8.2625 2.05-6.375 12.68-8.75 18.93v2.25c12.4 42.65 44.65 76.53 72.775 109.76 18.213 20.33 50.965 48.03 76.885 23.63 69.11-60.89 98.09-155.27 168.62-215.05 13.06-11.5 35.42-20.3 49.08-4.58 13.49 7.42 8.1 23.15 5.83 35.04 0.32 8.74 7.45 15.89 7.84 24.61-10.17 20.83-24.69 39.59-32.15 61.74-14.29 35.54-13.94 74.46-22.38 111.44-9.22 45-27.34 87.4-41.91 130.8-3.55 14.4 4.81 31 19.56 34.9 29.18 7.8 56.71-8.7 79.5-24.8 44.79-33.7 81.14-76.7 116.8-119.5 30.39-38.9 61.69-78.29 80.75-124.2 19.85-42.54-2.37-98.66-44.84-117.55-21.41-11.95-48.27-11.87-71.42-5.21-8.09 1.49-15.26 6.39-23.44 7.22-5.06-13.32 13.26-19.47 23.26-23.43 39.34-10.42 89.28-12.62 118.69 20.53 17.77 21.39 38.2 40.82 53.08 64.43 21.28 43.9 31.81 91.96 41.83 139.41 14.28 62.6 37.76 124.8 78.84 174.9 36.56 46.6 89.26 79 145.77 95.5 26.99 6.7 54.63 10.8 81.81 16.7 15.92 14.9 21.52 37.7 38.02 52.3 29.2 26.7 69 34.3 107 37.9 37.5 5.9 76.9 19.1 102.7 48.5-64 33-127.5 66.9-191.4 99.8-30-16.6-57.46-53.9-96.17-43.8-22.22 13.1-43.99 27.5-64.03 43.8-2.91 1.5-5.75 7.5-1.01 8.8 22.97 11.7 49.69 12.2 74.05 20 30.91 6.6 56.56 26.2 84.86 39 45.4-20.7 89.4-44.6 133.7-67.5 38.6-19.5 76.8-39.8 115.2-59.9 18.5-10.5 47.4-24.9 40.6-50.8-9.5-29.6-41.3-39.7-66.4-52.5-27.5-15.1-58.4-38.6-59.2-73-3.8-12.9 16.4-17.4 21.3-6.5 26.6 34.1 67.7 54.5 110.1 59.9 49 0.1 104.3-3.5 146.9 25.5 15.9 11.4-3.2 26.6-11.3 35.7-37.6 35.4-73.7 73-117 101.5-10.4 4.6-7.1 15.9-10.8 24.2-26.5 23-62-21.6-84.7 6.8-23.3 26.5-47.1 52.7-67.6 81.3-6.4 6.8 4.4 17.1 11.6 12.8 32.9-14.8 65.5-30.4 99.2-43.4 24.9-8.5 58.3 6.6 76.9-16.9 57.4-62.7 118.7-121.5 184.2-175.7 16-17.8 31.5-53.3 7.7-70.9-36.8-23.5-82.8-24.1-121.7-43.2-41.2-16.4-86.4-46.1-96.3-91.9 30.8-43 72.7-78.7 99.1-125.2 12.6-21.1 14.6-46.4 25.5-68.2 64.8 86.2 130.8 171.6 195.5 257.9 4.7-4.3 10.3-8.2 13.5-13.8-18.6-35.3-27.5-75.9-24.5-115.7 9.5-86 55.5-161.37 79.6-243.12 15.5-70.39 23.5-152.2-16.7-216-19.4-3.6-39.3-8.55-59.2-6.13-4.9 33.29 14 62.18 24.9 92.06 22.5 74.28-10.3 149.16-40.2 216.28-26.9 54.51-35.4 118.11-23.6 177.81 0 3.9 4 15.4-2.3 10.8-49.4-60.7-97.3-122.7-143.2-186.06-2.6-47-0.7-99.52-29.9-139.53-2.8-4.04-11.5-12.5-14.6-4.12-8.8 18.18-14.3 37.82-22.8 56.12-4.6-0.96-5.1-8.26-5.7-12.16 8.4-26.35 23.9-52.01 19.3-80.82-4.2-23.87-11.5-47.79-24.4-68.42-18.3 0.59-36.6-0.07-54.8-2.1-3.6 2.91-5 7.94-2.9 12.34 6 27.79 11.7 55.85 21.9 82.46-0.7 2.6-2 7.78-4.6 2.68-23.5-28.02-45.5-63.3-38.9-101.61-15.5 0.41-37.4 4.66-44.6-13.54 32.2-7.49 37.7-54.2 17.2-75.94-22-12.11-44.5 5.18-65.6 10.76-2.8-2.86-7.6-5.2-7.7-9.65 18-7.27 38.7-8.92 55.1-19.84 26.8-20.56 17.6-61.13 7.2-88.36-12.1-38.13-38.2-69.8-63.9-99.56 17-6.04 41.5-10.69 43.2-32.96 11.9 0.55 25.2 11.05 32.7 18.24-14.8-1.19-40.1 4.69-38.3 25.13 0.1 25.73 19.7 46.2 32.7 66.95 20.4 28.81 34.4 61.34 43.6 95.27 6.8 3.12 16.4-3.53 24.1-3.22 9-1.72 18.1-2 26.5 1.65 0.4-41.71-13.8-82.17-31.6-119.36 2.6-2.83 5.7-5.23 8.4-8 15.6-18.45-8.3-36.61-11-55.13-2.8-23.55-25.1-36.86-45.1-44.77-11.1-7.39-24-11.64-35.2-18.67 56-66.02 112.8-131.52 169.2-197.14 24.3-27.3 47.3-56.71 72.3-82.74 6.2 28.61 8.5 62.18 19.7 91.13 5.6 17.48 11.1 35.18 19.9 51.4 0.3 0.63 0.9 1.9 1.2 2.53 8.2 19.34 17.8 38.23 29 56l0.3 0.9c5.6 13.97 12.2 28.18 21 40.26 15.4 25.09 30.7 50.27 43.7 76.7 0.3 0.62 1 1.83 1.3 2.44 16 36.36 22.2 75.59 24 115.06-3.3 7.8 2.4 18.14 11.6 15.37 28.9-11.54 41.3-44.8 39.4-74.01 0.4-31.87-8.4-63.88-23.7-91.73-7.3-17.31-18.9-32.51-29.8-47.67-16.4-22.49-31.7-45.82-47.8-68.46-41.9-67.95-73.4-142.35-90.8-220.34-2.1-8.83-3.7-17.955-8.2-25.98h-2.3zm-405.6 138.05c-26.8 4.59-59.2 15.89-68.8 43.94 1.8 26.65 6.3 53.45 9.8 80.01 13.4 8.96 28.4 16.02 41.9 25.12 26.7 1.27 53.6-0.23 79.9-4.9 5.3-12.16 6.6-25.7 10.1-38.43 8.4-7.08 17.3-13.83 24.1-22.53-8.2-15.72-27-20.53-36.7-34.58-9.1-12.63-4.7-33.37-20.8-40.56-12.6-4.74-26.1-7.81-39.5-8.07zm6.8 38.89c9.6 0.06 19 2.7 24 11.8-12.7 15.26-37.6 18.12-53.6 6.97-6.8-10.96 8.1-16.54 16.8-17.64 4-0.66 8.4-1.16 12.8-1.13zm90.5 102.49c-43.3 16.62-91.7 27.44-137.8 15.67-21.2-16.45-43.8 22.02-36.3 39.47 19.9 15.24 47 13.68 70.7 14.9 39.1-2.36 79-5.49 116.2-18.86 8.9-4.41 20.5-8.83 22.8-19.52-2-17.44-19.2-29.78-35.6-31.66zm-167.9 111.48c0.8-0.03 1.8 0.07 3 0.3 14.4 8.62 25.6 21.49 38.1 32.24 28.6-1.45 56-13.59 84.9-15.02 7.3-1.98 21.1 2.25 17.5 12.28-45.2 9.6-93.8 13.6-130.9 44.29-10 8.09-26.3 22.26-15.9 35.86 38.1-21.02 79.5-46.77 125.2-45.89-2.5 8.19-13.8 14.88-23.3 16.17-59.3 11.57-107.1 58.23-168.96 59.93-43.21 3.43-85.07-15.73-128.24-9.93-3.39-8.99-2.45-23.29 10.89-19.76 30.3 8.21 60.82 16.24 92.27 18.74 7.76-13.51 14.55-29.54 12.1-45.37-2.12-16.81-21.78-19.17-35.33-19.39 4.45-13.37 21.83-17.91 33.65-11.77 17.11 8.3 28.95 23.77 40.97 37.94 4.85 5.03 8.65 14.43 13.75 17.85 12.5-21.1 35.6-31.95 50.4-50.77 11.2-16.77-9.2-29.9-17.6-42.27-2.7-3.39-10.4-15.14-2.5-15.43zm141.9 65.6c34.6 14.95 37.3 61.88 46 94.59 9.8 26.76-13.4 53.05-39.6 50.62-6.7-6.67 5.4-6.47 8.5-10.1 9.5-29.18 0.8-59.85 1.8-89.98-3.3-12.49-11.2-25.99-24.5-29.43 0.8-5.71 5.3-10.55 7.8-15.7zm197.3 35.34c-4.6 0.19-8.2 3.65-8.6 8.22 12.9 28.19 21.8 58.48 27.5 89.07 6.8 14.61 26.7 6.8 35.5-1.82-10.4-32.18-21.3-65.2-42.7-92.01-3.5-2.23-7.8-3.02-11.7-3.46zm278.2 40.18c-1.3-0.01-2.6 0.03-3.9 0.13-11.5 3.35-22.5 11.85-27.2 22.98-0.2 0.61-0.7 1.85-1 2.46-20.6 24.86-30.3 86.14 11.5 94.85 21.3-4.94 40.1 7.5 60.2 12.09 17.4 3.3 37-8.23 40.5-26.14 0.8-23.06 0-46.84 7.2-69.06 4.6-17.66-12.2-32.68-29.4-29.18-19.8 4.12-38.3-7.96-57.9-8.13zm-154.8 61.51c-20.8-0.14-43.5 3.55-63.1 9.74-8.2 4.32-24.3 6.26-20.7 19.28-2.1 11.64-2.2 23.69-2.3 35.51-3.6 14.6-5.5 30.1-7.6 45.07 4 16.27 24.4 19.3 38 15.04 21.4-6.04 44.6-12.27 64.3-20.73 22.1-5.8 45.1-12.67 63.9-26.21 11.8-7.6 39.1-13.66 25.7-31.96-9.9-15.7-4.3-51.78-33.5-41.31-14.6-3.37-30-2.52-44.8-2.96-6.3-0.95-13-1.42-19.9-1.47zm-147.9 25.05c-8.4 0.07-17 2.05-22.5 7.48-6.3 19.12-3.1 40.18-1.1 59.87-5.3 36.55 54.3 48.18 62.5 13.18 7.8-20.62 5.9-44 1.5-65.21-3.5-10.36-15.2-14.55-25.3-13.69l-1.1-0.02c-4.1-1.01-9-1.65-14-1.61zm-214.4 161.77c62.6 19.75 125.7 53.54 162.1 109.79 12.5 25.49 23.5 51.66 32.5 78.56 2 10.74 20.9 12.36 23.6 1.64 0.7-39.8 1.7-79.81-4.7-119.25 3.4 1.59 5.8 4.65 7.6 7.85 4.6 22.91 6 46.86 11.6 69.45 11.1 2.78 13.3-17.41 21.9-23.56 12.2 6.24 1.2 16.07-0.4 24.65-13.2 52.24-26.2 104.81-32.8 158.41-15.6 74.9-68.4 138.9-135 174.9-12.8 9.2-36.1 6.2-31.3-13.5 10.1-14.4 29.2-18.3 43.1-28.3 38.3-27.2 67.6-68.9 75.9-115.5 1.4-64.9 5.8-133.96-23.1-194.26-30.2-57.36-88.4-92.19-145.7-118.04-5.1-1.71-13.1-9.27-5.3-12.84zm-534.31 97.17c-1.04 10.46-0.28 23.8-2.05 35.25-3.03 12.48-6.94 24.87-10.84 37.03-15.39 39.67-36.48 77.59-65.74 108.69-2.45 1.7-4.99 3.8-5.86 6.7-21.96 21.9-44.91 45.6-65.05 68.4 16.89 7.6 35.15-8.5 52.74-10.7 17.9-2.1 44.83-12.8 55.92 6.1-15.77 7-35.95 7.7-53.35 12.5-7.71 13.6-18.12 26.1-24.6 40.2l-0.75 0.4c-10.3 13.3-19.88 27.6-28.65 41.9-12.97 13.9-23.46 31.4-36.95 45.5-13.09 11.9-7.8 30.6-4.25 45.4 6.14 64.3-16.36 125.4-27.95 187.5-7.45 17.2-12.24 43.8 8.98 53.9 16.1 1.8 13.58 20.5 20 31 4.32 16.5 5.35 33.8 8.61 50.3 19.16 16.9 48.09 13.8 71.72 13 13.16 0.7 28.12-16.1 10.79-24.1-10.41-20.3-23.31-40-33.7-60.3-7.15-22.4-16.81-44.4-19.09-68.1-3.23-50.3 2.28-101.7 19.47-149.2 14.61-42.6 40.45-80.1 64.65-117.6 26.12-30.2 67.21-42.1 91.32-74.8 9.95 6 17.99 14.8 28.69 19.7 12.27 10.4 25.16 19.8 36.43 31.3 23.4 24.3 53.98 53.8 91.13 42.6-17.3-9.6-34.46-21-49.1-34.9-13.27-16.9-25.88-34.5-37.41-52.5-28.36-57.9-46.58-120.5-57.61-183.7-4.78-35.89-16.89-71.47-37.5-101.47zm-347.88 303.67c-1.26-0.1-3.1 0.7-5.76 2.6-8.02 3.8-16.41 7.1-23.73 12.3-11.92 7.2-28.37 15.8-28.56 31.7-0.76 35.5 1.95 71.1-2.52 106.4-7.23 41.8-18.05 82.8-29.86 123.6-0.58 1.7-1.14 3.6-1.69 5.4-6.08 19.3-12.5 38.6-16.91 58.4-2.67 23.8 38.75 13.4 31.18 39.8-0.83 21.8-8.93 45.5 0.88 66.3 4 10.3 7.87 22.3 18.63 27.3h67.18 8.7c1.64-1.7 3.23-3.4 4.77-5.1 2.37-3.1 7.66-7.1 4.56-11.1-14.24-20.6-28.07-41.6-39.89-63.7-6.55-18.2-11.6-36.7-15.18-55.7-1.81-17.1-1.53-34.5-3.46-51.6-1.6-67.2 18.36-132.6 49.97-191.3 13.89-20.9 29.74-40.4 44.85-60.3-2.83-7-11.97-1.9-17.35-1.3-13.96 3.1-33.82 5.4-40.98-10.3-4.62-6.6 0.64-22.9-4.83-23.4z" transform="scale(.8)"/>
</svg>
