<?xml version="1.0" encoding="UTF-8" standalone="no"?>
<svg xmlns:rdf="http://www.w3.org/1999/02/22-rdf-syntax-ns#" xmlns="http://www.w3.org/2000/svg" height="1414pt" width="992pt" version="1.1" xmlns:cc="http://creativecommons.org/ns#" xmlns:dc="http://purl.org/dc/elements/1.1/" viewBox="0 0 992 1414">
<path d="m111.44 0c-28.252 18.962-30.841 58.638-40.428 88.838-10.388 63.872-20.824 131.64-2.524 195.1 3.763 15.78 10.849 31.01 21.049 43.67 37.623 46.38 118.69 40.94 154.55-5.15 4.4-5.27 8.31-11.01 11.07-17.31 11.7-18.37 17.49-39.96 21.37-61.22 2.56-10.5 3.93-21.24 4.82-31.99 8.1-59.05 2.67-120.06-14.91-176.9-2.79-8.415-7.92-24.091-19.84-18.778-6.44 6.35-8.71 15.863-12.91 23.713-0.85 1.675-1.68 3.363-2.49 5.05-6.99 12.763-14.82 25.213-19.9 38.913-10.9 18.712-21.13 37.902-30.04 57.622l-1.4 1.25c-23.61-25.05-36.75-58.273-48.65-90.21l-0.28-0.975c-8.27-15.237-0.99-41.463-16.24-51.625h-3.25zm947.56 38.613c-12.9 16.938-23.8 35.462-33 54.699-0.2 0.638-0.7 1.925-0.9 2.575-15.1 30.823-23.3 65.133-26.21 99.253-7.45 62 8.01 129.06 48.31 177.64 38.1 43.01 112.6 28.16 140.5-18.96 26.7-38.62 40.5-85.11 47.4-131.21 3.3-11.23 2.3-23.12 4.9-34.5v-20.2c-1.8-17.1-1-34.55-5.2-51.35-2.4-18.21-6.2-36.948-16-52.71-3.8-6.275-7.1-13.675-13.7-17.512-7.5 7.475-15 15.312-20.4 24.537-10.5 13.875-19.1 29.113-26.2 44.965-11.4 13.06-10.3 39.57-31.1 41.8-16.5-1.72-23.8-18.23-29.8-31.49-8.9-22.79-17-45.987-28.6-67.625-0.8-4.307-2.1-7.217-3.6-9.015-1.3-4.32-2.8-8.546-6.4-10.897zm-920.81 339.77c-8.02 0.07-15.05 2.4-15.66 11.84 2.73 29.64 18.42 57.93 33.73 82.17 5.28 11.27 12.62 22.75 21.43 31.32 6.2 13.24 24.52 17.5 37.93 13.89 6.03-0.58 13.37 0.36 18.31-3.76 7.65-0.81 14.49-10.85 8.64-17.53-11.43-20.65-19.13-43.39-30.36-63.93-3.26-10.47-8.61-20.92-14.7-29.94-3.77-19.22-26.17-19.04-41.39-22.38-4.86-0.41-11.69-1.73-17.93-1.68zm905.41 39.16c-3.9 17.83-12.3 34.21-18.6 51.21-7.3 12.23-14 25.34-19.7 38.32-6.24 12.22-20.51 23.22-18.05 37.73 12.73 15.53 40.35 12.22 52.65-2.29 18.1-13.61 33.9-32.42 46-51.7 14.2-14.27 21.6-35.01 31-52.91 4.5-9.25-7.5-2.44-11.2-2.5-18.9-2.12-37.1-7.44-54.8-14.29 0-2.5-5.1-2.45-7.3-3.57zm-373.79 4.99c-7.01 0.27-4.11 8.29-2.17 12.29 12.52 17.89 20.55 46.92 1.08 62.73-27.22 16.45-72.43 16.05-90.23-11.95-6.03-19.05 1.15-37.76 6.1-55.16-23.55 1.2-39.72 28.72-40.58 50.87 2.39 23.03 14.58 45.76 33.77 59.08l-0.37 0.82c-14.29 14-28.83 28.58-39.82 45.3-9.88 4.83-11.34 22.13-24.08 21.1-41.06 3.79-80.74-7.74-120.16-17.2-17.39-4.2-25.8 24.69-9.15 30.54 38.8 17.87 82.56 19.8 124.3 25.49-6.56 24.14-17.21 49.32-14.82 74.71 41.05 52.04 117.08 66.24 177.61 44.01 24.07-8.57 52.63-15.59 68.83-36.4 0.49-24.34-7.15-48.7-7.58-73.19 22.03-4.61 44.63-5.72 66.81-9.46 14.19-2.65 33.04 2.09 44.16-7.87 8.68-18.9-16.87-30.28-31.96-24.31-29.77 2.2-59.56 5.62-89.46 4.71-3.81-2.09-4.93-9.4-8.49-9.68-13.06-22.95-32.44-42.69-46.03-65.07 15.39-10.5 31.82-24.64 35.77-44.38 5.81-29.59-9.83-59.91-33.53-76.98zm-415.42 98.27c-9.21 0.07-18.3 4.21-23.69 12.58-10.95 20.68 8.86 39.92 26.8 46.59 14.54 8.97 31.63 14.79 48.24 18.65 16.64 7.4 48.62-2.06 36.55-25.66-13.19-9.87-27.8-18.56-42-26.82-5.9-6.15-14.34-9.18-21.5-13.52-5.87-7.9-15.2-11.89-24.4-11.82zm698.75 40.46c-25.62 13.71-53.62 22.56-79.42 35.68-3.93 24.31 29.68 25.71 45.13 18.02 17.31-4.17 36.1-12.65 49.26-22.64 8.02-2.31 14.79-7.37 22.08-11.21-4.9-3.57-10.61-5.87-16.44-7.4-7.24-3.47-14.35-7.19-20.61-12.45zm-901.95 13.78c22.274 58.66 69.612 103.78 120.85 137.93 4.68 4.44 14.02 0.88 9.25-5.88 0.75-7.99 1.83-15.96 2.28-23.98-17.1-8.18-32.73-18.97-48.37-29.58-0.27-0.29-0.54-0.55-0.81-0.8-0.61-0.55-1.23-1.01-1.85-1.41h-0.01c-28.66-23.7-55.858-49.25-81.342-76.28zm1073.8 41.24c-7.2 7.88-13.8 16.22-20.2 24.71-22.9 23.4-45.1 47.71-69.6 69.47-0.1 3.83 3.1 13.05 8.1 8.03 26-22.26 49.5-47.99 67.1-77.46 5.8-6.67 10.9-16.08 14.6-24.75zm-651.28 54.99c-1.22 0.07-2.18 0.65-2.27 2.2-33.35 20.67-70.55 33.77-106.41 48.91-13.78-0.62-5.58 17.74-7.38 26.18 35.14 3.39 72.47-2.42 103.39-18.74 22.93-6.7 29.34-38.68 17.35-57.23-1.12-0.63-3.11-1.4-4.68-1.32zm287.27 17.84c-0.36 16.4-1.09 41.74 19.13 47.04 33.03 11.4 65.4 29.2 100.82 29.95 0.85-10.05 0.67-20.32-0.24-30.29-41.51-10.93-81.94-26.23-119.71-46.7zm-547.89 10.07c-6.46 0.01-7.31 27.43 4.18 27.44 6.23 3.83 13.15 6.82 20.37 8.16 28.1 16.3 63.15 14.83 94.81 13.75 0.24-4.19-0.05-8.45-0.08-12.6 0.17-1.85 0.24-3.71 0.07-5.54-0.05-2.02-0.16-6.05-0.23-8.08-39.85-3.95-79.69-9.79-117.76-22.75-0.48-0.26-0.93-0.38-1.36-0.38zm-208.25 8.71c2.15 25.08 14.588 48.76 31.513 67.02 5.1 9.15 13.725 16.86 22.512 22.38 1.087 2.63 3.176 4.98 6.238 5.03 0.313 0.34 0.938 1.01 1.25 1.33 12.35 10.91 27.125 19.75 42.257 26.45 2.34 1.67 4.88 3.26 7.83 3.47 1.25 3.58 7.06 3.39 10.14 4.89 4.49 3.8 10.56 4.64 15.96 6.53 6.71 4.72 15.79 8.45 24.34 7.35 0.18-9.78 9.4-26.28-2.89-31.68-24.44-6.27-47.41-16.84-70.512-26.66-19.762-12.66-40-25.24-57.213-41.53-11.275-13.76-23-29.93-31.425-44.58zm1182.3 2.95c-31 43.54-73.3 77.86-119.4 104.42 1.6 3.69-0.1 17.14 7 11.9 45.4-28.67 89-70.92 112.4-116.32zm-173.8 6.97c-36.2 9.28-72.31 19.64-109.51 23.72-0.4 9-0.18 18.04 0.16 27.07 37.65 2.16 76.96-7.21 107.95-29.07 8.9-3.17 8.5-19.77 1.4-21.72zm-561.15 51.57c-1.21-0.01-2.58 0.22-4.12 0.72-33.93 14.1-66.92 32.69-99.14 49.85-17.37 0.74-18.26 36.05 0.66 35.75 41.36 1.57 87.14-19.35 106.79-56.99 4.02-7.7 7.48-29.3-4.19-29.33zm44.74 0.48c-4.37-0.09-8.4 1.26-10.45 5.28-11.46 11.72-8.98 34.27-0.05 47.31 13.18 26.52 45.02 36.21 71.11 45.09 28.5 10.93 62.66 10.13 93.07 7.31 14.12-0.66 28.87-2.23 42.09-7.25 32.04-6.64 73.98-29.08 60.99-69.13-0.01-0.78-0.04-2.37-0.06-3.16-0.43-8.5-3.11-16.85-8.34-23.61-8.93-0.14-18.69 3.95-25.29 9.59-26.1 12.2-54.15 21.42-83.03 24.51-45.04 2.96-87.84-13.25-127.57-32.6-3.39-1.74-8.1-3.26-12.47-3.34zm292.82 19c-16.6 2.28-8.6 24.39-2.78 34.23 24.65 29.79 67.03 30.83 100.18 46.26 10.03 3.39 7.2-25.29 1.8-27.89-33.29-17.06-67.23-33.07-99.2-52.6zm-591.17 43.78c-2.79 0.2-2.29 4.15-2.76 6.6-0.1 4.75-0.09 9.51 0.04 14.29 7.77 13.76 28.92 14.02 43.04 16.12 16.32 4.35 34.33 1.31 50.9-1.08 19.51 0.87 35.54-13.98 27.69-34.57-38.26-0.52-76.59-0.28-114.86-0.11-1.82-0.97-3.12-1.32-4.05-1.25zm1012.1 0.5c-40.6 40.68-84.5 78.51-133 109.47-6.6 2.87-4.6 14.13-3.3 18.08 59-23 108-75.32 136.3-127.55zm-176.9 4.89c-24.2 1.95-48.2 8-72.6 9.31-9.43 0.54-18.82 1.13-28.22 1.82-16.07-6.12-13.24 16.46-10.02 25.88 13.27-0.6 27.2 1.67 40.11-1.55 3.48-0.01 7.43 1 10.52-1.04 14.85-1.96 30.31-6.84 42.51-15.11 9-2.71 22.1-7.23 17.7-19.31zm-554.01 21.23c-3.47-0.08-7.1 2.09-8.16 6.06-7.54 21.94-8.23 49.77 4.58 69.84 8.94 14.6 22.72 26.89 37.94 34.55 23.24 17.67 54.66 25.25 83.75 24.8 42.74 2.93 87.81-11.51 124.74-32.22 16.68-7.09 36.21-19.8 37.24-39.99 2.32-12.22 4.65-28.1-2.32-38.71-0.63-7.39-9.41-4.51-14.17-2.88-41.05 16.03-84.47 30.18-129.1 27.86-46.65-0.8-88.3-23.08-128-44.77-1.21-3.03-3.81-4.47-6.5-4.54zm-50.15 11.47c-11.58-0.17-27.23 13.44-35.65 18.15-9.55 3.8-18.24 9.96-26.68 15.86-10.07 5.29-20.27 11.08-28.46 19.02-12.7 7.81-25.09 23.56-19.49 39.28 1.16 8.28 11.09 15.1 18.98 10.68 27.54-14.7 55.19-29.22 82.62-44.08 17.34-10.04 22.59-32.5 19.7-51.02-2.6-5.64-6.5-7.82-11.02-7.89zm-416.13 7.07c10.175 13.7 22.575 25.98 35.625 36.88 1.288 3.85 4.926 6.41 8.639 7.71 6.112 6.51 14.087 11.43 22.162 15.23 1.087 1.04 2.374 1.87 3.724 2.56 8.838 6.88 18.538 13.48 29.178 17.08 6.64 7.83 19.08 10.08 28.65 12.62 0.51-0.02 1.53-0.03 2.05-0.04 13.02 7.19 13.97-23.88 4.22-26.48-7.99-4.43-16.51-8.3-25.44-10.48-10.11-6.99-23.145-12.96-35.245-16.12-5.375-1.74-10.15-4.69-14.85-7.75-2.213-4.21-8.349-4.41-12.262-6.45-15.137-8.58-30.563-17.41-46.451-24.76zm780.82 9.63c-8.7 0.43-11.3 14.46-7.24 21.72 8.74 23.45 33.9 33.75 53.23 46.86 15.57 11.04 34.46 16.45 53.47 14.37 14.69-22.06-18.23-31.37-32.51-41.57-19.49-14.52-40.67-27.41-61.49-40.09-2.03-0.98-3.85-1.37-5.46-1.29zm-500.89 61.61c-33.98 9.63-69.73 4.4-104.49 6.26 0.86 8.09-2.46 18.42 1.34 25.59 33.92 15.16 78.06 12.61 108.59-9.04-2.43-6.73 2.1-21.35-5.44-22.81zm924.26 3.89c-39.6 30.36-80.4 59.47-123.6 84.67-10.5 2.7-8.9 14.6-7.1 22.3 52-21.9 99.6-64.42 130.7-106.97zm-168.9 3.78c-31.2 1.85-62.65 2.24-93.95 3.35-12.53 1.49-31.21-9.21-39.69 4.04-5.88 14.47 11.59 24.29 23.85 24.52 0.45-0.02 1.35-0.07 1.8-0.08 28.15 3.95 58.23-0.24 84.99-10.05 11-1.91 27.8-6.64 23-21.78zm-622.69 1.93c-6.29 3.05-13.97 6.35-18.21 11.6-28.06 14.34-54.26 33.06-80.31 50.96-13.74 7.8-16.18 27.3-12.69 39.8 20.34-5.4 39.51-15.5 57.7-26 21.58-11.3 43.07-24 61.2-40.4 3.46-11.48 4.27-28.93-7.69-35.96zm-426.01 1.75v2.29c27.438 53.72 78.512 94.82 135.07 114.72 13.68 6.2 6.51-17.1 6.39-23.3-54.722-17.7-99.898-55.21-141.46-93.71zm470.36 12.47c-23.63 18.07-15.97 68.14 11.18 81.94 0.32 0.2 0.97 0.8 1.3 1.1 24.65 22.9 59.07 37 92.54 41.6l1.09 0.1c12.52 3.7 32.03 4.6 46.39 2.1 11.88-0.1 24.4-0.8 35.58-5.1 46.56-7.1 88.79-41.3 97.46-88.8 2.96-8.84-5.9-18.76-14.74-14.77-25.57 10.67-52.57 19.37-78.8 26.57-12.95 0.6-25.49 5.2-38.41 6.6-29.29 1.7-58.06-4.8-85.45-14-22.32-11.14-45.97-25.3-68.14-37.34zm325.13 8.68c-1.43 0.01-4.3 0.04-5.74 0.05-15.59 10.96-8.82 36.51 1.99 49.21 22.97 24.6 54.08 40.5 85.32 52.3 15.65 4.9 5.12-18.9 7.87-27.2-31.89-22.2-58.55-50.8-89.44-74.36zm-505.11 58.76c-34.87 15.1-73.45 18.3-111.08 17.5-3.11-0.7-6.25-1.3-9.42-1.4 0.26 16.2-3.37 37.2 17.58 41.1 26.33 12.1 59.61 8.2 84.83-5.2 18.47-10.1 20.87-35.4 18.09-52zm755.42 17.9c-0.7-0.1-1.7 0.2-3 1-32.4 14.2-67.7 16.3-102.34 12.5-7.68-1.6-27.01-8.6-23.92 6.1-2.83 23.2 25.11 23.8 41.37 25.6 32.2 3.8 70.49-3.4 89.89-32-0.3-3.5 2.2-13.1-2-13.2zm-573.09 40.3c-10.55 18.2-5.81 43.9 3.8 61.3 26.83 54.9 99.45 73.3 155.61 62.5 39-4 74.92-31 88.24-68.1 4.78-11.4 8.08-26.6-1.16-36.4-15.54 2.5-32.51 8.1-46.46 12.3l-1.06 0.2c-65.38 17.6-134.42 4.3-193.12-27.7-0.42-2.8-3.65-3.3-5.85-4.1zm222.36 147.7c-11.58 8.8-24.92 15-39.01 18.7-42.84 8.2-86.97 2.6-128.8-8.3 2.8 12.3 6.03 25.2 12.65 36 5.91 15.2 14.9 31 26.71 41.9 16.04 19.5 30.87 42.8 52.85 56.1 28.25 7.4 61.88 5.5 86.99-10.4 4.7-3.1 12.19-7.5 11.83-13.4-22.62-35.9-20.68-79.9-23.22-120.6zm42.9 150.5c-11.86 0-20.58 10.5-30.57 15.9-13.81 4.4-27.49 9.6-42.09 11.2 19.09 20.1 41.38 37.5 60.65 57.7 15.05 12.5 29.24 28.7 49.05 33 20.19-3.3 44.8-13.7 49.67-35.7-13.8-27.6-40.88-46.4-64.57-65.2-5.31-7.6-14.76-11.7-22.14-16.9zm-279.27 69.5c-6.89 1.9-13.89 3.8-20.19 7.2-23.97 7.4-46.08 21.2-63.83 38.8-26.85 27.7-33.53 71.8-17.19 106.6 10.14 22 21.16 44.5 37.13 62.9 13.39 15.1 33.1-8.1 31.33-22-17.83-11-42.19-27.9-36.99-51.8 9.35-4.9 20.94-5 30.63-9.5 5.94-2.8 23.46 2.1 18.45-9.8-8.22-6.5-17-12.5-25.49-18.7-8.75-10.7-22.99-22.6-17.7-38.3 6.3-22.1 26.94-35.3 42.85-50.1 6.75-5.2 16.09-8 21-15.3zm392.55 38.9c-8.29 5.3-17.2 10.2-24.91 16.3-1.88 0.3-3.81 0.9-5.23 2.2-8.68 2.2-16.72 6.4-24.82 10.1 14.27 23 22.5 48.9 28.57 74.9 13.32 13.9 38.34 13.8 55.2 6.6 11.84-15.2 7.6-36 3.7-53.4-0.59-5.4-1.36-11.4-4.87-15.8-5.69-15.2-13.38-32.2-27.64-40.9zm-32.03 132.8c-2.85 0-5.72 3.1-6.69 5.7-14.68 11.5-27.88 26-40.85 39.3-11.24 5.3-19.42 15.8-30.19 22.1 9.26 12 11.93 26.9 14.82 41.2 30.83-8.6 60.28-24.6 83.62-46.3 0.51-0.4 1.55-1.3 2.07-1.7 15.31-10.3 26.62-26.5 34.29-43.3-5.43-1.4-11.05-2.5-16.65-2l-1.08-0.1c-10.74-5.2-25.86-5.8-36.56-13.6-0.88-0.9-1.83-1.2-2.78-1.3zm-363.96 38c-15.71-0.1-27.52 29.1-8.9 37.8 16.02 16 39.54 23.5 60.86 30.2 15 5 44.18 19.4 51.63-1.8 4.45-6.4 4.74-22.6-3.96-28.5-18.67-7.6-38.23-12.6-57.36-18.7-9.28-5.3-19.83-8.8-29.94-12.4-4.07-4.7-8.33-6.6-12.33-6.6zm251.84 37.4c-19.94 0.9-39.8 6.1-59.92 6.7-1.52 0-3.03 0-4.53 0.1-19.62 0-39.26 0.1-58.83-1 1.1 13.1-2.92 25.5-4.83 38.2 17.74 4.2 35.6 8 53.72 10.2h3.5c28.43-4.1 57.65-6.5 85.49-12.4 2.12-14.4-4.06-31.8-14.6-41.8z" transform="scale(.8)"/>
</svg>
