<?xml version="1.0" encoding="UTF-8" standalone="no"?>
<svg xmlns:rdf="http://www.w3.org/1999/02/22-rdf-syntax-ns#" xmlns="http://www.w3.org/2000/svg" height="1528pt" width="1151pt" version="1.1" xmlns:cc="http://creativecommons.org/ns#" xmlns:dc="http://purl.org/dc/elements/1.1/" viewBox="0 0 1151 1528">
<path d="m621.91 0c-67.79 6.775-113.79 65.575-144.59 121.06-24.45-12.04-43.06-40.497-73.32-37.222-14.72-1.038-31.35 8.637-31.94 24.632-5.91 54.57-5.5 109.65-10.07 164.29-10.19 6.94-29.53 13.43-34.78-2.61-43.83-55.49-82.41-115.74-133.9-164.7-15.59-16.751-42.02-28.813-62.11-11.751-25.34 24.921-24.12 65.701-15.17 97.771 7.9 43.68 11.6 87.99 16.65 132.06 5.78 89.81-0.51 180.01 3.52 269.87-1.03 18.19 9.71 33.69 21.18 46.61-36.18 29.33-20.14 78.61-23.99 118.34-13.65 169.47-33.478 338.65-58.003 506.85-5.075 23.9 28.203 27.2 39.493 10.8 27.83-35.3 22.69-85.7 33.91-125.7 10.8 2.9 18.42 14.5 29.76 16.6 14.14-2.7 20.68-17.9 26.48-29.4 22.22-51.5 27.88-107.8 37.09-162.61 12.57 10.97 33.49 10 42.47-5.39 24.42-40.76 23.84-90.09 31.75-135.66 7.26-51.5 1.95-103.74 3.81-155.52 8.94-6.51 18.04-13.74 20.46-25.21 10.19-36.46 14.28-75.4 10.28-112.97 0.61-23.4 0.32-46.79 0.23-70.19-2.66-15.05 13.55-22.26 20.08-33.71 6.72 0.72 2.16 10.75 3.85 15.01-2.35 129.94 6.74 260.57-10.2 389.85-16.33 138.85-33.2 281.5-95.1 408.7-7.37 21-27.45 43.8-15.1 66.8 11.33 12.4 27.23-4.9 33.04-15.2 14.29-25.6 27.29-52.1 43.56-76.6 15.85 14.2 31.39-6.6 38.65-19.9 27.68-48.4 44.99-102.7 57.24-156.8 31.55-0.1 47.99-31.9 47.2-59.96-2.11-15.37 14.76-20.2 20.47-32.03 16.87-29.7 5.34-65.96 9.26-98.23 4.68-38.18 16.57-75.04 25.09-112.44 2.19-5.03 5.84-19.76 13.39-13.04 19.43 17.46 28.95 42.62 38.77 66.22 39.08-24.21 84.87-39.88 131.33-36.41 27.2 2.83 52.94 12.35 78.39 21.68-31.53-46.23-68.26-93.5-75.39-150.86-5.82-31.47 32.41-40.45 45.66-63.07 44.79 47.44 99.89 84.5 159.51 110.49 66.75 18.55 136.58 21.5 205.28 28.23 36.5 11.41 72.7 37.21 112.5 23.75 28.1-7.1 37.9-46.5 21.1-68.4-10-10-23.7-13.68-37-16.5 19.8-26.35 41.3-51.53 61.6-77.53 27.2 5.1 56.1 13.93 83.4 5.18 13.3-3.33 24.9-19.08 17-32.15-20.3-13.78-47.4-8.58-70.4-8.13 5.9-11.2 14.3-21.23 24-29.33 20.1 15.47 45.2 28.14 71.2 22.04 12.3-1.42 19.3-15.97 13.8-26.8-12.6-14.92-34-17.92-50.4-24.61 25-14.98 57.9-31.75 65.9-63.96v-2.28c4.7-19.78-15-36.07-32.9-26.65-27.8 14.7-38.8 47.08-55 72.2-6.4-20.05-4.4-54.01-33-56.71-21.7 10.29-14 40.51-11.1 59.3-0.7 15.51 21.3 29.95 7.1 43.36-6.5 7.09-13 14.28-19.4 21.47-4.8-23.79-6.3-56.98-33.2-66.99-8.1-4.05-12.3 6.6-13.6 13.09-4.2 29.97 5.5 59.95 17.1 87.02-11.9 18.26-26.4 35.15-40.5 51.89-1.2-40-0.6-80.42-0.2-120.55 18.7-22.14 39.1-43.4 56.6-66.67 5.8-9.76 12.4-21.15 9.4-32.9-6-7.53-17.8-15.01-27.1-8.61-15.7 10.07-26.7 25.64-37 40.89-4.8-11.31-1.9-24.91-0.6-36.96 30.4-17.79 57-43.3 72.8-75.11 5.5-10.37-1.7-26.89-14.8-24.87-9.5-2.24-21.4 5.59-28.6 0.54 15-16.43 31.9-35.39 31.3-59.17 1.1-12.12-12.2-21.89-23.3-17.12-16.7 7.7-29.6 21.77-46.2 29.45-21.3 3.88-34.6-18.64-52-26.54-11.1-9.23-30.8-1.65-29.5 13.94-0.5 24 16.2 42.97 31.3 59.54-8.5 3.65-20.9-3-31.2-0.3-13.3-0.78-16.3 15.92-11.7 25.56 16.3 31.13 42.1 57.09 72.7 74.14 0.3 11.89-1.4 23.76-2.2 35.61-14-14.63-22.9-36.95-44.2-42.06-17.6 1.59-24 23.33-12.6 36.11 20.8 25.37 39.4 52.52 59.9 78.1-2.3 38.92 0 78.82-4.1 117.15-12.2-16.33-27.9-30.55-36.3-49.33 12.7-29.04 21.3-61.76 14.7-93.33-1.4-10.46-14.5-15.63-21.8-7.23-15 18.69-16.8 43.58-22.7 65.94-8.2-11.26-19.5-20.6-26.3-32.66 18.4-20.79 17-51.41 13.9-77.1-0.9-9.47-9.9-19.55-20-13.93-22.3 8.15-21.5 35.96-23.9 55.77-14.3-24.88-27.6-52.2-50.5-70.31-16.6-13.19-41 1.58-37.04 22.25 5.54 34.62 41.34 52.77 68.04 68.07-16.2 5.94-34.5 9.08-47.9 20.9-9.58 7.84-5.63 25.41 6.1 28.85 25.6 9.45 50.3-6.95 70.7-20.81 10.9 7.99 21.2 17.61 28.8 28.91-20.3 0-40.9-2.19-60.9 1.91-18 0.9-20.7 28.13-5.2 35.21 28.9 16.22 60.9 0.57 91.2-1.11 22.4 24.93 43.7 51 64.5 77.28-37.1 6.67-76.5 22.25-113.3 6.27-56.8-27.47-115.86-49.5-174.17-73.3-15.74-7.53-34.64-6.81-49.15-17.16-52.47-71.23-112.67-136.32-172.25-201.52-23.25-11.4-47.72-21.07-69.31-35.62-4.76-6.4-5.83-20.52 3.42-23.17 17.02-2.13 31.17 10.48 47.42 12.81 17.45-2.56 24.98-20.69 30.54-35.42 8.6 0.91 20.14 8.13 26.95-0.72 5.84-19.98 5.27-41.36 7.59-61.88 7.96-16.43 23.02-27.39 36.35-39.12 11.85-29.96 10.84-65.65-2.06-95.222-25.73-47.375-77.93-78.063-131.02-83.338h-17.5zm2.44 29.068c38.01-0.649 75.29 19.665 102.77 45.045 21.44 19.8 33.84 55.027 18.87 81.947-11.24 11.19-24.89-2.78-35.68-7.44-12.51-10.06-32.72-10.54-44.4 1.09-36.65 27.64-26.91 81.19-53.53 115-7.23 6.13-26.96 12.87-31.09 1.32 16.4-41.17 37.1-80.94 53.45-122.06-2.59-10.37-11.69-0.05-14.78 4.78-21.72 30.8-36.69 65.74-50.45 100.66-2.51 6.68-11.09 14.9-17.35 7.34-10.32-13.85-2.3-32.86 3.84-46.97 14.04-28.97 28.84-57.54 44.36-85.71 2.72-3.83 13.2-13.57 3.93-13.67-21.39 16.19-32.97 41.99-46.94 64.38-5.84 11.07-10.83 22.56-15.96 33.97-16.74 18.36-25.6-16.49-15.03-28.64 13.88-32.72 33.14-62.8 52.84-92.247 3.07-5.337-4.4-10.738-8.69-6.301-20.11 32.238-43 63.268-70.39 89.648-22.72-20.86-5.12-52.55 11.16-71.2 24.4-26.761 49.07-59.522 86.76-66.948 8.73-2.578 17.54-3.844 26.31-3.994zm586.25 75.572c-1.9 0.02-3.8 0.29-5.9 0.83-24.9 11.1-20.9 46.42-19.9 68.54-1 19.44 12.8 49.41 36.7 36.44 19.1-16.16 16-45.84 15-68.2-0.2-15.67-8-37.88-25.9-37.61zm-848.99 185.39c5.64 9.6 4.53 21.61 6.92 32.26-41.68 21.27-77.05 58.55-87.32 105.16-6.32 26.19-3.5 53.39-2.52 80-0.03 29.87 0.26 59.76-0.09 89.64-1.91 23-13.15 47.22-35.48 56.63-11.05 2.77-15.23-3.25-16.1-11.94-0.04-0.81-0.09-1.64-0.15-2.48-0.31-9.7 2.74-21.81 4.89-29.04 22.11-42.95 9.04-91.92 11.99-137.82-4.43-44.35 15.78-86 38.78-122.43 17.91-28.51 45.23-53.3 79.08-59.98zm10.15 51.37c-2.11 20.58 1.13 41.07 0.63 61.61-12.34 5.93-22.41 15.83-29.09 27.74-26.84 52.01-9.44 112.4-14.7 167.91-1.81 17.63-3.65 44.96-28.45 42.41 5.45-52.32 0.42-105.11-3.95-157.37 0.31-55.1 19.69-120.26 75.56-142.3zm121.14 112.16c8.5 38.4-9.06 85.83-47.54 101.97-10.42 5.46-29.17-0.62-22.54-14.92 12.64-7.27 26.54-12.3 38.82-20.2 15.27-19.61 22.06-44.07 31.26-66.85zm59.67 127.95c17.17 28.1 33.24 82.69-5.5 101.94-0.73-31.76 2.52-69.44 5.5-101.94zm-68.25 94.59c2.82 14.61-1.08 32.15-12.53 42.51-20.33-7.33-40 7.14-60.36 1.36-9.1-3.73-17.12-13.13-17.52-23.18 8.16-8.33 17.23-0.41 25.56 2.49 23.7 9.31 51.48-2.34 64.85-23.18zm-217.57 0.66c2.23 11.18-1.94 35.58-3.74 50.92-13.87-20.55-38.63-6.74-56.55-0.94-15.17 5.81-24.18-12.4-19.65-24.88 28.65 0.77 56.53-9.05 79.94-25.1zm450.65 110.28c-9.72 0.09-19.41 1.65-28.93 5.25-20.12 3.97-32.13 27.83-52.4 25.78-45.93-11.63-100.48 15.59-109.77 63.89-4.4 8.98-2.84 19.83-8.76 28.22-17.45 31.72-5.44 69.23-12.09 102.82-38.1 61.5-44.61 134.9-61.19 203.8-26 89.9-85.38 166.4-153.11 229.4-53.14 50.4-92.96 112.8-128.62 176.3-21.69 40.5-46.06 80.2-60.12 124-7.76 18.2 14.97 18.8 18.52 5.5 50.42-122.3 118.85-239.1 213.75-332.3 71.37-61 117.68-148.3 136.52-239.7 10.16-45.3 18.51-91.3 35.27-134.8 6.95-21.1 20.48-39.3 27.17-60.45 3-25.65-0.09-51.59 2.54-77.26 7.68-24.04 21.81-48.6 45.25-61.1 3 66.86 1.59 134.05 5.26 200.81-0.67 44.4 1.85 88.8-0.09 133.2-6.66 81.4-14.75 163.3-32.8 243.3-9.19 30.3-18.44 61.4-28.31 91.9-30.98 86.5-70.42 169.9-114.04 250.7-11.6 16.1-19.97 34.7-29.11 52.3-9.64 14.5-17.63 30.3-25.66 45.8-1.74 12.7 12.57 18.8 23.02 20 14.04 1 35.45 3.8 41.8-12.9 21.19-44.6 39.01-90.7 55.18-137.3 48.86-144.4 92-291.4 116.72-442 4.21-28.7 8.65-57.5 6.2-86.5 4.17-30 0.56-62.6 1.34-93.5 3-79.1-0.42-158.38 3.88-237.39 0.97-20.96 18.54-43.65 41.64-36.86 9.43 21.59 8.22 46.01 13.04 68.8 10.52 56.39 16.46 113.65 24.54 170.35 15.25 100.7 11.46 202.8 10.03 304.4-5.46 74.7-21.46 148.5-35.35 222.1-7.48 32.8-14.98 66.8-21.08 100.3-6.84 28.2-13.23 57.2-16.24 86.2-4.84 18-7.65 40.3-7.28 60.3-4.92 25.2 35.29 14.2 48.39 9.7 24.46-12.8 19.29-48.2 26.23-71.3 6.51-35.2 12.56-71 14.65-106.7 3.22-17.6 5.32-35.7 5.1-53.6 3.41-15.7 2.52-32.6 2.54-48.7 3.22-86 0.92-172.6 1.13-258.8 4.8-141.8-20.72-282.2-28.56-423.45 1.84-25.99 0.64-55.19 16.6-77.31 5.46-8.46 18.7-9.95 24-0.67 28.74 42.45 13.86 96.07 19.95 143.71 3.49 118.12 15.83 236.12 31.46 353.12 4.88 28.2 8.71 56.9 14.77 84.7 8.91 51.5 19.22 104.6 33.36 154 26.91 112.5 65.48 224.1 127.05 322.7 2.87 7.3 9.23 12.4 17.37 10.8 11.53 1.9 33.44 4.2 39.24-9.8-8.51-8.2-11.54-20.9-20.14-28.6-16.69-32-34.03-64.1-52.23-95.2-8.59-18.5-17.27-37.6-27.71-54.9-12.72-31.6-27-63.1-38.62-95-6.1-20.1-12.3-42.5-20.45-60.9-5.33-25.9-14.51-51.6-22.14-77.1-8.8-37.6-18.5-75.6-27.16-113.3-5.13-26.1-10.17-52.2-15.46-78.2-2.11-21-6.83-41.9-9.61-62.9-14.08-104.1-21.87-209.3-18-314.35 2.01-20.45 2.65-42.25 13.02-60.56 6.89-11.35 21.16-5 27.3 3.56 8.69 12.49 13.2 27.31 17.68 41.64 0.78 7.39 2.13 14.97 5.22 21.77-0.3 25.28-1.61 50.88 0.95 76.04 1.49 54.8 7.91 109.5 13.94 163.9 8.91 104.5 18.81 208.9 30.72 313.1 1.34 16 6.39 31.4 12.82 45.9 4.75-1.1 3.58-8.4 3.13-11.7-19.81-110-26.5-221.8-36.75-333-2.51-33.7-3.87-67.7-6.73-101.4-0.1-20-0.33-41.5-2.5-60.46 0.93-47.72-0.12-95.52 0.39-143.25 13.67-1.54 17.29 15.73 22.08 25.21 13.66 47.97 21.69 97.59 26.63 147 2.7 33.6 4.67 67.2 3.86 101-1.43 90.8 18.26 180.2 41.65 267.5-0.35 83.5 14.23 166.1 24.77 248.7 3.13 24.1 5.7 50.5 12.25 72.9 1.97 7.4 3.55 31 16.55 23 6.98-17.7-1.4-38-1.85-56.4-0.71-18.2-2.69-36.5-4.87-54.6-5.13-68.1-11.65-136.2-17.58-204.3-0.58-23.8-11.52-45.7-22.32-66.4-22.61-57.4-30.59-121.3-25.27-182.7 0.27-1.4 1.59-17 4.39-10 43.43 204.8 128.04 398.6 228.54 581.3 7.8 16.9 17.3 33.3 27.5 48.8 12.3 24.3 28 46.8 42.9 69.6 8.1 14.1 26.3 23.8 42.3 17.3 6.8-2.4 7.5-11.7 3.8-17-20.8-32.4-46.6-61.2-69.2-92.2-144.1-199.9-224.22-437.8-277.61-676.1-15.03-69.6-26.79-143.26-39.98-211.24-10.98-37.76-39.2-81.45-83.4-80.36-22.93-8.87-47.97-18.12-72.81-17.86zm-174.59 310.56c-1.1 8-2.57 16-4.47 23.9-30.63 141.4-85.75 276.1-143.59 408.3-15.27 39.1-40.48 73-59.68 110.1-6.87 7.8-11.69 17.2-16.32 26.5-19.86 31.6-40.96 62.6-59.94 94.8-12.3 16.6-24.41 33.6-35.12 51.2-2.1 2.9-4.19 5.9-6.25 8.9-12.28 16-24.59 32-36.25 48.5-5.77 5.4-8.34 13.4-7.64 21.3-1.05 11.6 10.7 17.5 20.59 18.9h6.6c36.41-17.6 53.01-58.3 72.92-91.3 72.96-135.1 139.61-273.9 195.6-416.9 31.28-92.9 60.19-187.4 73.54-284.6-0.05-6.2 3.15-15.2 0.01-19.6zm111.19 173.2c-1.42 9.7-3.34 19.5-4.05 29.3-22.95 132.3-52.88 263.7-92.91 391.9-20.88 62.5-39.63 125.7-60.7 187.9-21.19 25.3 37.37 37.7 34.84 6.2 31.55-106 59.28-213.4 81.93-321.8 19-86.2 41.04-172.9 41.68-261.6 0.81-3.3 0.71-5.6 0.16-6.9 0.32-8.5 0.88-17.3-0.95-25zm107.01 189.3c-2.09 33-1.65 70.8 1.52 105.6 0.33 9.1-0.65 18.6 1.59 27.6 0.93 12.8-0.58 31.8 2.54 42.3-0.15 0.7-0.45 2.2-0.59 3 0.57 54.6-0.35 110 3.07 164 0.01 0.6 0.02 1.7 0.04 2.3 3.96 22.9-11.03 56.8 9.68 73.8 12.04 12.2 44.63 9.9 47.26-10.4-0.42-16.6-4.62-33.1-7.27-49.5-3.01-20.2-5.79-42.5-10.29-61.1-1.08-5.3 0.48-11.5-2.35-16.3-5.01-33.2-9.79-66.6-16.61-99.5-1.86-21.5-6.39-42.8-9.78-64.1-4.16-27-8.49-55-13.42-81.4l0.11-1.1c-1.51-11.8-3.94-23.5-5.5-35.2zm259.09 149.8c1.3 6.5 2.6 13 4.7 19.3 6.2 29 13.3 58.3 21.6 86.7 13.2 54.5 28 108.5 43.9 162.3 11.7 9.8 33.6 11 44.9 0.6 5.3-2.8 9.2-12.8 5-17.7-9.9-22.2-19.5-45.3-31.8-65.8-5.5-17.6-14.9-34.2-23.5-50.3-4.3-14.1-11.6-27.2-18.5-40.2-3.2-10.1-8.5-19.7-13.8-28.7-6.1-16.7-15-32.4-22.5-48.5-3.5-5.4-3.9-15.2-10-17.7zm-747.35 31.6c-6.03 5.8-9.94 13.4-13.95 20.8-23.84 32.6-50.59 62.9-77.89 92.6-8.09 6.4-15.75 13.4-22.2 21.5-2.83 2.5-5.8 4.8-8.75 7.1-6.52 5.2-12.88 10.6-18.71 16.5-16.61 12.3-32.962 25.4-48.6 38.9-13.975 7.1-26.025 17.3-39.175 25.8-14.463 8.2-28.775 16.6-43.475 24.4v1.1c9.5375 6 20.874 7.1 31.762 4.9 34.162-3.1 65.876-20.9 90.888-43.6 4.55-3.3 9.16-6.7 12.07-11.6 8.49-4.6 14.5-12.2 20.03-19.9 0.33-0.3 0.96-0.9 1.29-1.2 43.02-45.6 75.21-100.4 105.14-155.1 4.48-7.1 8.58-14.4 11.57-22.2z" transform="scale(.8)"/>
</svg>
